<!--?xml version="1.0" standalone="no"?-->
              <svg id="sw-js-blob-svg" viewBox="0 0 100 100" xmlns="http://www.w3.org/2000/svg" version="1.1">
                    <defs> 
                        <linearGradient id="sw-gradient" x1="0" x2="1" y1="1" y2="0">
                            <stop id="stop1" stop-color="rgba(51.621, 220.734, 175.663, 1)" offset="0%"></stop>
                            <stop id="stop2" stop-color="rgba(31, 176.093, 251, 1)" offset="100%"></stop>
                        </linearGradient>
                    </defs>
                <path fill="url(#sw-gradient)" d="M26.3,-31.9C33.9,-25,39.7,-16.5,40.3,-7.9C40.9,0.7,36.2,9.4,31.2,18C26.2,26.6,21,35,13,39.5C5,44.1,-5.8,44.7,-13.3,40.3C-20.8,35.9,-25,26.4,-29.5,17.5C-34.1,8.7,-39,0.5,-38.1,-7.1C-37.2,-14.7,-30.5,-21.6,-23.2,-28.5C-15.9,-35.4,-8,-42.4,0.7,-43.2C9.4,-44,18.7,-38.7,26.3,-31.9Z" width="100%" height="100%" transform="translate(50 50)" style="transition: all 0.3s ease 0s;" stroke-width="0"></path>
              </svg>