<svg width="575" height="394" viewBox="0 0 575 394" fill="none" xmlns="http://www.w3.org/2000/svg">
<rect width="550" height="330" rx="30" transform="matrix(0.993068 0.117537 -0.0826343 0.99658 28 0)" fill="url(#paint0_linear_14_22)"/>
<path d="M116.815 295.513C115.928 295.408 115.167 295.144 114.534 294.72C113.915 294.284 113.453 293.726 113.148 293.046C112.845 292.353 112.729 291.574 112.801 290.711L113.329 284.333C113.402 283.456 113.644 282.719 114.054 282.124C114.464 281.528 115.008 281.096 115.686 280.828C116.378 280.547 117.167 280.459 118.054 280.564C118.955 280.671 119.714 280.942 120.333 281.378C120.954 281.8 121.416 282.351 121.721 283.031C122.025 283.711 122.141 284.49 122.068 285.367L121.54 291.745C121.468 292.609 121.226 293.345 120.815 293.954C120.404 294.549 119.853 294.987 119.162 295.268C118.484 295.536 117.702 295.618 116.815 295.513ZM116.942 293.978C117.736 294.072 118.393 293.895 118.911 293.447C119.444 292.986 119.744 292.351 119.812 291.54L120.34 285.162C120.408 284.352 120.217 283.665 119.769 283.102C119.336 282.528 118.721 282.193 117.927 282.099C117.133 282.005 116.469 282.188 115.936 282.648C115.417 283.097 115.125 283.727 115.057 284.537L114.528 290.915C114.461 291.726 114.645 292.418 115.078 292.993C115.526 293.556 116.148 293.884 116.942 293.978ZM117.337 289.215C116.979 289.172 116.698 289.025 116.491 288.772C116.298 288.522 116.217 288.21 116.248 287.838C116.277 287.479 116.407 287.206 116.637 287.019C116.88 286.819 117.181 286.741 117.539 286.783C117.896 286.825 118.171 286.972 118.365 287.223C118.572 287.462 118.661 287.761 118.631 288.12C118.6 288.492 118.463 288.778 118.219 288.977C117.989 289.178 117.694 289.257 117.337 289.215ZM124.569 296.23L124.705 294.595L128.637 295.061L129.584 283.64L125.407 286.124L125.573 284.131L129.053 282.068L131.496 282.357L130.425 295.272L133.643 295.653L133.507 297.288L124.569 296.23ZM135.999 299.796L144.603 281.895L146.49 282.119L137.886 300.02L135.999 299.796ZM152.542 299.742C151.655 299.637 150.894 299.372 150.261 298.948C149.642 298.513 149.18 297.955 148.876 297.275C148.572 296.582 148.456 295.803 148.528 294.939L149.057 288.561C149.129 287.684 149.371 286.948 149.781 286.352C150.192 285.757 150.736 285.325 151.413 285.056C152.105 284.776 152.894 284.688 153.781 284.793C154.682 284.9 155.442 285.171 156.061 285.606C156.681 286.028 157.143 286.58 157.448 287.26C157.752 287.94 157.868 288.719 157.796 289.595L157.267 295.974C157.195 296.837 156.954 297.574 156.542 298.182C156.132 298.778 155.581 299.216 154.889 299.496C154.211 299.765 153.429 299.847 152.542 299.742ZM152.669 298.207C153.464 298.301 154.12 298.124 154.639 297.675C155.172 297.215 155.472 296.58 155.539 295.769L156.068 289.391C156.135 288.58 155.944 287.894 155.496 287.331C155.063 286.756 154.449 286.422 153.654 286.328C152.86 286.234 152.196 286.417 151.663 286.877C151.145 287.326 150.852 287.955 150.785 288.766L150.256 295.144C150.188 295.954 150.372 296.647 150.805 297.222C151.253 297.784 151.875 298.113 152.669 298.207ZM153.064 293.443C152.707 293.401 152.425 293.254 152.218 293.001C152.025 292.75 151.944 292.439 151.975 292.067C152.005 291.708 152.134 291.435 152.364 291.247C152.608 291.048 152.908 290.969 153.266 291.012C153.623 291.054 153.899 291.201 154.092 291.452C154.299 291.691 154.388 291.99 154.358 292.349C154.327 292.721 154.19 293.006 153.946 293.206C153.716 293.406 153.422 293.486 153.064 293.443ZM160.297 300.458L160.432 298.824L164.365 299.289L165.312 287.869L161.135 290.353L161.3 288.36L164.78 286.296L167.223 286.585L166.152 299.501L169.37 299.882L169.234 301.516L160.297 300.458Z" fill="white"/>
<path d="M74.3499 280.222L72.9771 274.525L73.8907 274.633L74.7965 278.464C74.8512 278.692 74.8997 278.912 74.9423 279.125C74.9853 279.331 75.0154 279.493 75.0325 279.609C75.075 279.5 75.1343 279.349 75.2104 279.157C75.287 278.958 75.3676 278.753 75.452 278.541L76.9394 274.994L77.8431 275.101L75.5614 280.366L74.3499 280.222ZM80.4252 281.042C79.8493 280.974 79.4079 280.774 79.1011 280.442C78.7949 280.104 78.6627 279.683 78.7045 279.178C78.747 278.666 78.9458 278.284 79.3011 278.031C79.6563 277.778 80.1153 277.684 80.6781 277.751L82.3663 277.951L82.4117 277.403C82.4398 277.064 82.3587 276.792 82.1683 276.589C81.9851 276.379 81.7082 276.253 81.3374 276.209C81.013 276.17 80.7358 276.208 80.5058 276.322C80.2763 276.429 80.1353 276.596 80.0829 276.825L79.1892 276.719C79.2879 276.255 79.5408 275.905 79.9479 275.672C80.355 275.438 80.8466 275.356 81.4226 275.424C82.0515 275.498 82.5346 275.72 82.8717 276.088C83.2088 276.457 83.3542 276.92 83.308 277.478L82.9956 281.246L82.1217 281.142L82.2085 280.096L82.0595 280.078L82.2209 279.946C82.1878 280.345 82.0061 280.642 81.6756 280.838C81.3518 281.034 80.935 281.102 80.4252 281.042ZM80.7024 280.36C81.1261 280.41 81.4825 280.345 81.7715 280.165C82.0606 279.984 82.2189 279.728 82.2465 279.396L82.3109 278.618L80.6426 278.421C80.3446 278.386 80.1027 278.441 79.9168 278.587C79.7309 278.732 79.6261 278.948 79.6024 279.234C79.5771 279.539 79.6596 279.794 79.85 279.998C80.0475 280.195 80.3316 280.316 80.7024 280.36ZM87.6095 281.792C87.2917 281.754 87.0189 281.658 86.791 281.504C86.5632 281.349 86.3927 281.148 86.2795 280.9C86.1664 280.651 86.1228 280.371 86.1487 280.059L86.5561 275.146L84.7189 274.928L84.7866 274.111L87.5176 274.434L87.0424 280.165C87.0237 280.391 87.0717 280.577 87.1865 280.725C87.3018 280.866 87.4654 280.949 87.6773 280.974L89.4151 281.18L89.3474 281.997L87.6095 281.792ZM90.6841 282.156L90.7519 281.338L92.6884 281.568L93.0073 277.721L91.3191 277.521L91.3869 276.704L93.9689 277.009L93.5821 281.673L95.4193 281.891L95.3516 282.708L90.6841 282.156ZM93.5045 275.958C93.286 275.932 93.1186 275.855 93.0021 275.728C92.8857 275.6 92.8355 275.439 92.8515 275.247C92.868 275.047 92.9438 274.899 93.079 274.801C93.2147 274.696 93.3918 274.657 93.6103 274.682C93.8287 274.708 93.9959 274.788 94.1118 274.923C94.2282 275.051 94.2782 275.214 94.2616 275.414C94.2456 275.606 94.1701 275.752 94.0349 275.85C93.8998 275.948 93.723 275.984 93.5045 275.958ZM98.4477 283.175C97.9048 283.111 97.4797 282.876 97.1724 282.471C96.8717 282.066 96.7472 281.551 96.799 280.927L96.932 279.322C96.9844 278.691 97.1912 278.213 97.5525 277.886C97.9138 277.56 98.3692 277.43 98.9187 277.495C99.3689 277.548 99.7195 277.713 99.9706 277.991C100.222 278.269 100.33 278.614 100.296 279.026L100.135 278.796L100.333 278.819L100.417 277.571L100.549 275.977L101.443 276.082L100.839 283.357L99.9456 283.252L100.032 282.205L99.8536 282.184L100.05 281.996C100.015 282.415 99.8517 282.731 99.5599 282.944C99.2686 283.151 98.8979 283.228 98.4477 283.175ZM98.8101 282.433C99.1808 282.477 99.4818 282.395 99.7129 282.188C99.944 281.98 100.077 281.67 100.111 281.259L100.235 279.764C100.269 279.352 100.19 279.017 99.9972 278.759C99.8046 278.502 99.5229 278.351 99.1522 278.307C98.7748 278.262 98.4675 278.34 98.2303 278.54C97.9931 278.74 97.8569 279.053 97.8216 279.478L97.6977 280.973C97.6624 281.398 97.7447 281.737 97.9444 281.988C98.1442 282.24 98.4327 282.388 98.8101 282.433ZM73.0869 293.155L73.4282 289.04L71.8393 288.852L71.9071 288.034L73.496 288.222L73.5745 287.276C73.6103 286.844 73.7741 286.521 74.0659 286.307C74.3583 286.087 74.7428 286.005 75.2195 286.061L76.8183 286.251L76.7506 287.068L75.1517 286.879C74.9465 286.854 74.7835 286.885 74.6627 286.972C74.549 287.052 74.4842 287.189 74.4682 287.381L74.3897 288.328L76.6241 288.593L76.5564 289.41L74.322 289.145L73.9807 293.261L73.0869 293.155ZM77.959 293.732L78.4135 288.251L79.2874 288.354L79.2006 289.401L79.4092 289.425L79.0675 290.039C79.1165 289.448 79.2792 289.018 79.5556 288.748C79.8391 288.473 80.2325 288.366 80.7356 288.425C81.3116 288.493 81.7533 288.73 82.0606 289.135C82.3751 289.535 82.5068 290.044 82.4555 290.662L82.4283 290.99L81.5345 290.885L81.5552 290.635C81.591 290.204 81.5123 289.862 81.3192 289.611C81.1332 289.354 80.8483 289.203 80.4643 289.158C80.0869 289.113 79.7793 289.194 79.5416 289.401C79.3105 289.608 79.1773 289.925 79.142 290.35L78.8528 293.838L77.959 293.732ZM85.7838 294.739C85.3469 294.687 84.9764 294.559 84.6724 294.356C84.3684 294.152 84.14 293.883 83.9871 293.55C83.8414 293.211 83.7865 292.825 83.8223 292.393L83.9429 290.938C83.9793 290.5 84.0965 290.135 84.2945 289.843C84.4991 289.552 84.7672 289.342 85.0988 289.213C85.4303 289.085 85.8146 289.046 86.2516 289.098C86.6885 289.15 87.059 289.278 87.363 289.481C87.667 289.685 87.8921 289.953 88.0384 290.286C88.1912 290.619 88.2498 291.002 88.2139 291.434L88.0925 292.899C88.0567 293.33 87.9362 293.695 87.731 293.993C87.5329 294.285 87.2682 294.495 86.9366 294.624C86.605 294.752 86.2208 294.79 85.7838 294.739ZM85.8499 293.941C86.2406 293.988 86.5542 293.914 86.7908 293.721C87.0275 293.527 87.1635 293.218 87.1987 292.793L87.3194 291.338C87.3546 290.913 87.2721 290.577 87.0718 290.332C86.8715 290.087 86.5761 289.942 86.1854 289.895C85.8015 289.85 85.4878 289.923 85.2446 290.116C85.0079 290.309 84.8719 290.619 84.8367 291.044L84.716 292.499C84.6808 292.924 84.7633 293.259 84.9636 293.504C85.1705 293.75 85.466 293.896 85.8499 293.941ZM89.4212 295.089L89.8757 289.608L90.6602 289.7L90.6057 290.358L90.7844 290.379L90.6256 290.602C90.6509 290.296 90.7505 290.063 90.9242 289.903C91.1046 289.743 91.3338 289.679 91.6119 289.712C91.9164 289.748 92.1421 289.889 92.2889 290.135C92.4357 290.38 92.492 290.709 92.4578 291.121L92.2343 290.551L92.6514 290.6L92.4429 290.817C92.4682 290.511 92.5711 290.279 92.7515 290.119C92.9385 289.96 93.171 289.897 93.4491 289.93C93.7933 289.971 94.0474 290.131 94.2113 290.413C94.3818 290.694 94.4494 291.048 94.4142 291.473L94.0688 295.639L93.2445 295.541L93.5908 291.366C93.6095 291.14 93.5744 290.958 93.4856 290.82C93.4034 290.683 93.2696 290.603 93.0842 290.581C92.9055 290.56 92.7579 290.606 92.6415 290.72C92.5323 290.828 92.4683 290.995 92.4496 291.22L92.1025 295.406L91.3875 295.321L91.7337 291.146C91.753 290.913 91.7146 290.731 91.6186 290.599C91.5298 290.461 91.3927 290.381 91.2073 290.359C91.0219 290.337 90.8777 290.384 90.7745 290.499C90.6719 290.608 90.6112 290.775 90.5925 291.001L90.2455 295.186L89.4212 295.089Z" fill="white"/>
<path d="M215.963 297.084C215.533 297.033 215.163 296.902 214.852 296.691C214.549 296.48 214.321 296.209 214.168 295.875C214.022 295.536 213.967 295.157 214.002 294.738L214.125 293.244C214.161 292.818 214.277 292.46 214.475 292.168C214.68 291.877 214.948 291.664 215.281 291.529C215.619 291.394 216.004 291.352 216.434 291.403C216.864 291.454 217.231 291.585 217.535 291.795C217.845 292.006 218.073 292.278 218.219 292.611C218.372 292.944 218.431 293.324 218.396 293.749L218.316 294.716L214.919 294.314L214.875 294.842C214.84 295.274 214.921 295.619 215.121 295.877C215.32 296.129 215.622 296.279 216.026 296.327C216.37 296.367 216.653 296.34 216.875 296.246C217.097 296.145 217.242 295.974 217.309 295.734L218.202 295.839C218.105 296.291 217.849 296.63 217.436 296.856C217.03 297.076 216.539 297.152 215.963 297.084ZM217.491 294.014L217.522 293.645C217.558 293.214 217.476 292.869 217.277 292.61C217.084 292.353 216.783 292.199 216.372 292.151C215.968 292.103 215.647 292.182 215.41 292.389C215.172 292.596 215.035 292.915 214.999 293.347L214.975 293.636L217.567 293.943L217.491 294.014ZM219.443 297.395L221.614 294.804L220.017 291.928L221.07 292.053L222.011 293.875C222.052 293.954 222.088 294.038 222.121 294.129C222.16 294.221 222.191 294.295 222.213 294.352C222.237 294.301 222.272 294.235 222.319 294.153C222.373 294.072 222.426 293.998 222.478 293.93L223.711 292.365L224.754 292.489L222.715 294.944L224.409 297.983L223.356 297.858L222.333 295.926C222.293 295.847 222.253 295.759 222.214 295.66C222.183 295.556 222.153 295.472 222.125 295.408C222.094 295.465 222.047 295.54 221.986 295.633C221.932 295.721 221.875 295.798 221.816 295.865L220.486 297.519L219.443 297.395ZM225.666 299.943L226.269 292.668L227.163 292.774L227.076 293.82L227.255 293.841L227.059 294.03C227.094 293.611 227.257 293.298 227.548 293.091C227.846 292.878 228.221 292.798 228.671 292.852C229.22 292.917 229.642 293.151 229.936 293.555C230.238 293.953 230.362 294.467 230.31 295.099L230.177 296.703C230.142 297.122 230.036 297.475 229.858 297.762C229.687 298.051 229.459 298.262 229.174 298.396C228.895 298.531 228.571 298.576 228.2 298.532C227.756 298.48 227.406 298.314 227.148 298.035C226.89 297.757 226.779 297.411 226.813 296.999L226.974 297.23L226.776 297.206L226.692 298.454L226.56 300.049L225.666 299.943ZM227.966 297.72C228.344 297.764 228.648 297.686 228.878 297.485C229.116 297.285 229.252 296.973 229.287 296.548L229.411 295.053C229.446 294.627 229.364 294.289 229.164 294.037C228.971 293.786 228.686 293.638 228.309 293.594C227.944 293.551 227.643 293.632 227.406 293.839C227.168 294.046 227.032 294.355 226.998 294.767L226.874 296.262C226.84 296.674 226.922 297.009 227.121 297.267C227.321 297.526 227.602 297.677 227.966 297.72ZM233.827 299.198C233.575 299.168 233.379 299.071 233.239 298.907C233.106 298.744 233.049 298.539 233.069 298.293C233.091 298.034 233.181 297.837 233.339 297.701C233.504 297.567 233.712 297.514 233.964 297.544C234.215 297.574 234.408 297.674 234.541 297.844C234.68 298.014 234.739 298.229 234.718 298.489C234.697 298.734 234.605 298.921 234.441 299.049C234.283 299.178 234.078 299.228 233.827 299.198ZM214.571 310.002C214.028 309.938 213.603 309.703 213.296 309.297C212.995 308.893 212.871 308.378 212.922 307.754L213.055 306.149C213.108 305.518 213.315 305.039 213.676 304.713C214.037 304.387 214.493 304.256 215.042 304.321C215.492 304.375 215.843 304.54 216.094 304.818C216.345 305.096 216.453 305.441 216.419 305.853L216.258 305.623L216.457 305.646L216.54 304.398L216.672 302.803L217.566 302.909L216.963 310.184L216.069 310.078L216.156 309.032L215.977 309.011L216.173 308.823C216.138 309.241 215.975 309.557 215.683 309.771C215.392 309.978 215.021 310.055 214.571 310.002ZM214.933 309.26C215.304 309.304 215.605 309.222 215.836 309.014C216.067 308.807 216.2 308.497 216.234 308.085L216.358 306.59C216.392 306.179 216.313 305.844 216.121 305.586C215.928 305.329 215.646 305.178 215.276 305.134C214.898 305.089 214.591 305.167 214.354 305.367C214.116 305.567 213.98 305.88 213.945 306.305L213.821 307.8C213.786 308.225 213.868 308.563 214.068 308.815C214.268 309.067 214.556 309.215 214.933 309.26ZM220.367 310.688C219.791 310.62 219.349 310.42 219.043 310.088C218.736 309.75 218.604 309.329 218.646 308.824C218.688 308.312 218.887 307.93 219.243 307.677C219.598 307.423 220.057 307.33 220.62 307.397L222.308 307.597L222.353 307.048C222.381 306.71 222.3 306.438 222.11 306.235C221.927 306.025 221.65 305.898 221.279 305.855C220.955 305.816 220.677 305.854 220.447 305.967C220.218 306.074 220.077 306.242 220.024 306.471L219.131 306.365C219.229 305.9 219.482 305.551 219.889 305.318C220.297 305.084 220.788 305.001 221.364 305.07C221.993 305.144 222.476 305.366 222.813 305.734C223.15 306.103 223.296 306.566 223.249 307.124L222.937 310.891L222.063 310.788L222.15 309.742L222.001 309.724L222.162 309.592C222.129 309.991 221.948 310.288 221.617 310.484C221.293 310.68 220.876 310.748 220.367 310.688ZM220.644 310.006C221.068 310.056 221.424 309.991 221.713 309.811C222.002 309.63 222.16 309.374 222.188 309.042L222.252 308.264L220.584 308.067C220.286 308.032 220.044 308.087 219.858 308.232C219.672 308.378 219.568 308.594 219.544 308.88C219.519 309.185 219.601 309.44 219.791 309.644C219.989 309.841 220.273 309.962 220.644 310.006ZM227.402 311.42C226.932 311.364 226.575 311.194 226.331 310.911C226.094 310.628 225.994 310.257 226.032 309.798L226.299 306.58L224.76 306.397L224.828 305.58L226.367 305.762L226.495 304.218L227.389 304.323L227.261 305.868L229.445 306.127L229.378 306.944L227.193 306.685L226.926 309.904C226.891 310.323 227.073 310.556 227.47 310.603L228.959 310.779L228.892 311.596L227.402 311.42ZM232.752 312.154C232.322 312.103 231.952 311.972 231.642 311.761C231.338 311.55 231.11 311.278 230.957 310.945C230.812 310.606 230.756 310.227 230.791 309.808L230.915 308.313C230.95 307.888 231.067 307.53 231.265 307.238C231.469 306.947 231.738 306.733 232.07 306.598C232.409 306.464 232.793 306.422 233.223 306.473C233.654 306.524 234.021 306.655 234.324 306.865C234.634 307.076 234.862 307.348 235.009 307.681C235.161 308.014 235.22 308.394 235.185 308.819L235.105 309.785L231.709 309.383L231.665 309.912C231.629 310.343 231.711 310.689 231.91 310.947C232.11 311.199 232.411 311.349 232.815 311.396C233.16 311.437 233.443 311.41 233.664 311.316C233.887 311.215 234.031 311.044 234.098 310.803L234.992 310.909C234.894 311.361 234.639 311.699 234.225 311.926C233.819 312.146 233.328 312.222 232.752 312.154ZM234.281 309.084L234.311 308.715C234.347 308.283 234.265 307.938 234.066 307.68C233.873 307.422 233.572 307.269 233.161 307.221C232.758 307.173 232.437 307.252 232.199 307.459C231.961 307.666 231.825 307.985 231.789 308.417L231.765 308.706L234.357 309.013L234.281 309.084Z" fill="white"/>
<path d="M257.83 312.203C256.943 312.098 256.183 311.834 255.55 311.41C254.931 310.975 254.469 310.417 254.164 309.737C253.861 309.043 253.745 308.265 253.816 307.401L254.345 301.023C254.418 300.146 254.659 299.41 255.07 298.814C255.48 298.219 256.024 297.787 256.702 297.518C257.393 297.237 258.183 297.15 259.07 297.255C259.97 297.361 260.73 297.632 261.349 298.068C261.969 298.49 262.432 299.041 262.736 299.722C263.041 300.402 263.157 301.18 263.084 302.057L262.555 308.435C262.484 309.299 262.242 310.035 261.831 310.644C261.42 311.24 260.869 311.678 260.177 311.958C259.5 312.227 258.718 312.308 257.83 312.203ZM257.958 310.669C258.752 310.763 259.409 310.586 259.927 310.137C260.46 309.677 260.76 309.041 260.827 308.231L261.356 301.853C261.423 301.042 261.233 300.355 260.785 299.792C260.351 299.218 259.737 298.884 258.943 298.789C258.148 298.695 257.485 298.879 256.952 299.339C256.433 299.787 256.14 300.417 256.073 301.227L255.544 307.606C255.477 308.416 255.66 309.109 256.094 309.683C256.542 310.246 257.163 310.575 257.958 310.669ZM258.353 305.905C257.995 305.863 257.713 305.715 257.507 305.463C257.314 305.212 257.233 304.9 257.263 304.528C257.293 304.169 257.423 303.896 257.652 303.709C257.896 303.51 258.197 303.431 258.554 303.473C258.912 303.516 259.187 303.662 259.38 303.913C259.588 304.153 259.677 304.452 259.647 304.81C259.616 305.182 259.479 305.468 259.235 305.667C259.004 305.868 258.71 305.947 258.353 305.905ZM265.585 312.92L265.721 311.286L269.653 311.751L270.6 300.33L266.423 302.815L266.588 300.822L270.069 298.758L272.512 299.047L271.441 311.963L274.658 312.343L274.523 313.978L265.585 312.92ZM277.014 316.487L285.619 298.586L287.506 298.809L278.901 316.71L277.014 316.487ZM293.558 316.432C292.67 316.327 291.91 316.063 291.277 315.639C290.658 315.203 290.196 314.645 289.891 313.965C289.588 313.272 289.472 312.493 289.543 311.63L290.072 305.251C290.145 304.374 290.387 303.638 290.797 303.043C291.207 302.447 291.751 302.015 292.429 301.746C293.121 301.466 293.91 301.378 294.797 301.483C295.698 301.59 296.457 301.861 297.076 302.297C297.696 302.719 298.159 303.27 298.463 303.95C298.768 304.63 298.884 305.409 298.811 306.286L298.282 312.664C298.211 313.528 297.969 314.264 297.558 314.873C297.147 315.468 296.596 315.906 295.905 316.187C295.227 316.455 294.445 316.537 293.558 316.432ZM293.685 314.897C294.479 314.991 295.136 314.814 295.654 314.366C296.187 313.905 296.487 313.27 296.555 312.459L297.083 306.081C297.151 305.271 296.96 304.584 296.512 304.021C296.078 303.446 295.464 303.112 294.67 303.018C293.875 302.924 293.212 303.107 292.679 303.567C292.16 304.016 291.867 304.645 291.8 305.456L291.271 311.834C291.204 312.645 291.387 313.337 291.821 313.912C292.269 314.475 292.89 314.803 293.685 314.897ZM294.08 310.134C293.722 310.091 293.44 309.944 293.234 309.691C293.041 309.44 292.96 309.129 292.991 308.757C293.02 308.398 293.15 308.125 293.379 307.937C293.623 307.738 293.924 307.66 294.281 307.702C294.639 307.744 294.914 307.891 295.107 308.142C295.315 308.381 295.404 308.68 295.374 309.039C295.343 309.411 295.206 309.697 294.962 309.896C294.731 310.097 294.437 310.176 294.08 310.134ZM301.312 317.149L301.448 315.514L305.38 315.98L306.327 304.559L302.15 307.043L302.315 305.05L305.796 302.986L308.239 303.276L307.168 316.191L310.385 316.572L310.25 318.206L301.312 317.149Z" fill="white"/>
<path d="M427.079 144.108L429.483 115.116L442.01 116.599C444.21 116.859 446.033 117.375 447.479 118.147C448.935 118.92 449.998 119.894 450.67 121.069C451.351 122.246 451.631 123.57 451.509 125.042C451.42 126.109 451.104 127.053 450.561 127.875C450.028 128.698 449.318 129.357 448.432 129.853C447.546 130.339 446.535 130.629 445.397 130.723L445.373 131.006C446.611 131.2 447.713 131.65 448.68 132.355C449.648 133.051 450.391 133.944 450.908 135.035C451.426 136.116 451.628 137.34 451.515 138.709C451.383 140.294 450.853 141.656 449.923 142.795C449.002 143.934 447.755 144.768 446.182 145.297C444.61 145.825 442.775 145.965 440.678 145.717L427.079 144.108ZM435.444 138.751L439.111 139.185C440.428 139.341 441.436 139.212 442.134 138.799C442.834 138.377 443.224 137.68 443.305 136.708C443.361 136.028 443.254 135.434 442.983 134.926C442.712 134.417 442.299 134.006 441.746 133.693C441.202 133.381 440.53 133.178 439.731 133.083L435.951 132.635L435.444 138.751ZM436.354 127.766L439.571 128.146C440.257 128.228 440.873 128.191 441.417 128.036C441.962 127.882 442.397 127.619 442.722 127.247C443.057 126.868 443.25 126.381 443.299 125.786C443.373 124.889 443.11 124.167 442.51 123.62C441.91 123.063 441.122 122.726 440.144 122.611L436.815 122.217L436.354 127.766ZM459.735 148.316C458.353 148.152 457.149 147.781 456.124 147.202C455.109 146.615 454.339 145.819 453.815 144.813C453.291 143.808 453.088 142.583 453.208 141.139C453.306 139.95 453.593 138.96 454.067 138.168C454.542 137.366 455.163 136.739 455.932 136.287C456.701 135.835 457.577 135.524 458.559 135.354C459.551 135.186 460.61 135.125 461.737 135.173C462.957 135.222 463.94 135.224 464.685 135.179C465.439 135.125 465.991 134.995 466.341 134.789C466.691 134.573 466.884 134.257 466.918 133.842L466.923 133.785C466.97 133.219 466.789 132.759 466.382 132.406C465.974 132.053 465.432 131.836 464.755 131.756C464.012 131.668 463.392 131.762 462.894 132.036C462.407 132.303 462.088 132.765 461.939 133.424L454.773 132.576C454.976 131.266 455.496 130.098 456.331 129.072C457.176 128.038 458.346 127.271 459.841 126.772C461.336 126.263 463.16 126.135 465.314 126.39C466.865 126.574 468.242 126.923 469.443 127.437C470.645 127.941 471.652 128.57 472.463 129.324C473.275 130.068 473.871 130.901 474.25 131.822C474.64 132.736 474.793 133.697 474.709 134.707L473.474 149.599L466.196 148.738L466.449 145.68L466.28 145.66C465.78 146.42 465.199 147.014 464.537 147.44C463.884 147.868 463.153 148.149 462.345 148.282C461.545 148.416 460.675 148.427 459.735 148.316ZM462.683 143.69C463.275 143.76 463.84 143.703 464.378 143.519C464.925 143.336 465.382 143.033 465.749 142.609C466.117 142.186 466.328 141.644 466.383 140.983L466.533 139.171C466.319 139.232 466.091 139.286 465.85 139.333C465.618 139.382 465.368 139.424 465.099 139.459C464.84 139.495 464.562 139.524 464.266 139.546C463.979 139.569 463.678 139.586 463.364 139.597C462.754 139.62 462.248 139.717 461.844 139.889C461.451 140.052 461.147 140.278 460.933 140.567C460.729 140.848 460.612 141.177 460.581 141.554C460.531 142.158 460.704 142.646 461.1 143.017C461.497 143.388 462.024 143.612 462.683 143.69ZM485.996 138.73L484.981 150.961L477.195 150.039L478.998 128.296L486.389 129.171L486.047 133.304L486.272 133.331C486.857 132.009 487.774 131.026 489.024 130.383C490.283 129.741 491.707 129.514 493.297 129.702C494.829 129.884 496.131 130.395 497.201 131.236C498.281 132.07 499.08 133.136 499.599 134.436C500.127 135.738 500.321 137.176 500.181 138.751L499.031 152.624L491.245 151.702L492.259 139.471C492.357 138.397 492.155 137.52 491.651 136.841C491.156 136.163 490.42 135.766 489.442 135.65C488.802 135.574 488.231 135.65 487.728 135.876C487.235 136.094 486.84 136.448 486.543 136.937C486.247 137.416 486.064 138.014 485.996 138.73ZM510.299 148.754L511.125 139.475L512.141 139.595L517.994 132.911L526.74 133.946L516.994 144.286L514.793 144.026L510.299 148.754ZM502.875 153.079L505.279 124.087L513.065 125.009L510.662 154L502.875 153.079ZM516.248 154.662L511.996 145.467L517.534 140.519L525.163 155.717L516.248 154.662Z" fill="white"/>
<path fill-rule="evenodd" clip-rule="evenodd" d="M410.761 117.752C411.526 118.146 412.459 118.408 413.559 118.538C414.727 118.676 415.786 118.618 416.736 118.365C417.686 118.111 418.456 117.651 419.047 116.983C419.638 116.315 419.98 115.424 420.072 114.308L420.09 114.096L426.958 114.909C427.165 114.995 427.379 115.07 427.601 115.136L425.217 143.887L404.363 141.419L406.759 112.518L417.051 113.736L417.041 113.864C416.961 114.826 416.619 115.484 416.014 115.835C415.409 116.192 414.672 116.32 413.803 116.217C413.188 116.144 412.684 115.998 412.292 115.781C411.905 115.569 411.604 115.322 411.388 115.039C411.172 114.762 411.012 114.488 410.909 114.219L408.094 114.563C408.23 115.191 408.517 115.783 408.955 116.338C409.394 116.893 409.996 117.364 410.761 117.752ZM427.601 115.136C428.003 115.254 428.429 115.34 428.879 115.394C430.149 115.544 431.272 115.394 432.25 114.943C433.227 114.493 434.012 113.794 434.603 112.846C435.2 111.899 435.554 110.752 435.666 109.404C435.778 108.056 435.619 106.845 435.19 105.771C434.766 104.697 434.112 103.825 433.227 103.154C432.343 102.484 431.266 102.073 429.996 101.923C428.727 101.773 427.603 101.923 426.626 102.373C425.648 102.823 424.861 103.525 424.263 104.478C423.671 105.431 423.319 106.582 423.208 107.929C423.096 109.277 423.252 110.485 423.676 111.553C424.106 112.622 424.764 113.491 425.648 114.162C426.046 114.464 426.482 114.713 426.958 114.909L427.614 114.987L427.601 115.136ZM417.051 113.736L417.246 111.392L417.093 111.374C416.909 111.673 416.651 111.971 416.318 112.269C415.991 112.567 415.57 112.801 415.055 112.968C414.545 113.137 413.918 113.177 413.173 113.089C412.175 112.971 411.289 112.628 410.515 112.062C409.748 111.491 409.163 110.707 408.761 109.71C408.366 108.709 408.227 107.497 408.345 106.076C408.464 104.643 408.801 103.463 409.357 102.533C409.918 101.599 410.627 100.925 411.481 100.512C412.337 100.093 413.264 99.9424 414.262 100.061C415.024 100.151 415.639 100.355 416.109 100.674C416.584 100.987 416.954 101.343 417.217 101.74C417.481 102.131 417.676 102.494 417.802 102.83L417.971 102.85L418.15 100.692L421.171 101.05L420.09 114.096L417.051 113.736ZM415.927 110.498C415.443 110.761 414.877 110.855 414.228 110.778C413.557 110.698 413.003 110.467 412.568 110.084C412.139 109.696 411.83 109.19 411.642 108.568C411.461 107.94 411.403 107.227 411.469 106.429C411.535 105.642 411.708 104.953 411.991 104.363C412.274 103.768 412.659 103.319 413.145 103.016C413.632 102.713 414.217 102.603 414.899 102.683C415.56 102.762 416.101 103 416.524 103.399C416.953 103.793 417.257 104.312 417.437 104.956C417.623 105.602 417.682 106.335 417.614 107.156C417.545 107.988 417.367 108.688 417.081 109.254C416.795 109.821 416.41 110.235 415.927 110.498ZM430.874 112.568C430.38 112.892 429.789 113.014 429.1 112.933C428.395 112.849 427.824 112.59 427.387 112.155C426.956 111.715 426.652 111.159 426.474 110.486C426.302 109.814 426.249 109.081 426.315 108.289C426.381 107.49 426.554 106.782 426.833 106.163C427.118 105.539 427.508 105.062 428.003 104.732C428.503 104.402 429.106 104.279 429.811 104.363C430.499 104.444 431.059 104.705 431.49 105.144C431.92 105.584 432.222 106.143 432.393 106.821C432.571 107.494 432.627 108.229 432.561 109.028C432.495 109.821 432.32 110.526 432.035 111.144C431.756 111.763 431.369 112.238 430.874 112.568ZM444.27 116.958L449.982 104.46L446.723 104.074L442.923 113.411L442.788 113.395L440.604 103.35L437.337 102.963L440.885 116.557L444.27 116.958Z" fill="white"/>
<rect width="80" height="65" rx="15" transform="matrix(0.993068 0.117537 -0.0826343 0.99658 82.6363 151.383)" fill="#EFD063"/>
<line y1="-0.5" x2="65" y2="-0.5" transform="matrix(0.0826343 -0.99658 0.993068 0.117537 97.1264 218.511)" stroke="black"/>
<line y1="-0.5" x2="40" y2="-0.5" transform="matrix(0.0826343 -0.99658 0.993068 0.117537 136.849 223.212)" stroke="black"/>
<line y1="-0.5" x2="20" y2="-0.5" transform="matrix(0.993068 0.117537 -0.0826343 0.99658 140.155 183.349)" stroke="black"/>
<line y1="-0.5" x2="20" y2="-0.5" transform="matrix(0.993068 0.117537 -0.0826343 0.99658 138.502 203.281)" stroke="black"/>
<line y1="-0.5" x2="20" y2="-0.5" transform="matrix(0.993068 0.117537 -0.0826343 0.99658 78.9177 196.229)" stroke="black"/>
<line y1="-0.5" x2="20" y2="-0.5" transform="matrix(0.993068 0.117537 -0.0826343 0.99658 80.5704 176.297)" stroke="black"/>
<path d="M76.6544 258.355L76.8713 255.74L83.1633 256.485L84.6785 238.212L77.9951 242.187L78.2595 238.998L83.8282 235.696L87.7369 236.158L86.0234 256.823L91.1714 257.433L90.9546 260.048L76.6544 258.355ZM95.7725 260.618L96.0158 257.684L103.729 250.965C105.044 249.811 106.018 248.767 106.652 247.833C107.288 246.877 107.644 245.932 107.722 244.996C107.829 243.7 107.554 242.636 106.895 241.807C106.258 240.98 105.325 240.494 104.096 240.349C102.74 240.188 101.638 240.444 100.791 241.117C99.9649 241.792 99.4963 242.799 99.3852 244.139L96.5252 243.8C96.6839 242.402 97.1022 241.228 97.78 240.277C98.4807 239.308 99.3837 238.61 100.489 238.183C101.615 237.758 102.888 237.629 104.307 237.797C105.706 237.963 106.89 238.382 107.861 239.055C108.855 239.71 109.586 240.569 110.054 241.634C110.522 242.698 110.699 243.921 110.584 245.303C110.475 246.621 110.017 247.887 109.21 249.102C108.404 250.316 107.137 251.658 105.411 253.128L99.1989 258.383L109.781 259.635L109.564 262.25L95.7725 260.618ZM121.061 263.933C119.663 263.767 118.457 263.346 117.443 262.668C116.453 261.971 115.713 261.089 115.224 260.022C114.735 258.955 114.546 257.752 114.657 256.412L117.517 256.751C117.409 258.048 117.685 259.111 118.343 259.94C119.025 260.751 120.012 261.233 121.304 261.385C122.618 261.541 123.666 261.279 124.45 260.599C125.234 259.918 125.677 258.962 125.779 257.729L125.917 256.07C126.026 254.752 125.75 253.689 125.09 252.881C124.43 252.073 123.443 251.591 122.129 251.436L119.746 251.154L119.984 248.283L126.201 243.351L116.795 242.238L117.012 239.623L129.31 241.079L129.072 243.949L122.375 249.243L122.404 248.892C124.523 249.143 126.157 249.948 127.306 251.308C128.456 252.667 128.946 254.368 128.777 256.409L128.639 258.067C128.528 259.407 128.135 260.541 127.458 261.47C126.804 262.401 125.923 263.091 124.816 263.54C123.711 263.968 122.459 264.098 121.061 263.933ZM143.987 266.324L144.41 261.222L133.923 259.981L134.296 255.484L144.614 242.89L147.729 243.259L137.106 256.429L137 257.704L144.627 258.607L145.098 252.93L147.958 253.269L146.847 266.663L143.987 266.324ZM178.51 270.733C176.625 270.509 175.119 269.837 173.992 268.716C172.866 267.596 172.265 266.193 172.191 264.51L175.051 264.849C175.081 265.775 175.414 266.534 176.05 267.124C176.687 267.694 177.588 268.047 178.754 268.185C180.088 268.343 181.114 268.099 181.831 267.454C182.569 266.812 182.992 265.831 183.101 264.513L183.289 262.249C183.399 260.931 183.144 259.87 182.526 259.067C181.929 258.267 180.974 257.789 179.661 257.633C178.834 257.535 178.096 257.673 177.444 258.047C176.795 258.4 176.302 258.921 175.967 259.611L173.107 259.273L174.334 246.408L186.537 247.852L186.32 250.467L176.882 249.35L176.144 257.088L177.034 257.193L176.075 257.917C176.158 256.918 176.615 256.178 177.447 255.696C178.299 255.218 179.393 255.057 180.728 255.215C182.615 255.417 184.028 256.175 184.968 257.488C185.93 258.783 186.324 260.483 186.149 262.588L185.962 264.852C185.791 266.914 185.051 268.48 183.743 269.548C182.437 270.596 180.692 270.991 178.51 270.733ZM197.66 272.999C196.177 272.824 194.9 272.361 193.828 271.612C192.779 270.843 191.995 269.86 191.474 268.66C190.953 267.461 190.754 266.117 190.877 264.628C190.974 263.459 191.228 262.33 191.64 261.241C192.072 260.154 192.66 259.129 193.403 258.165L199.998 249.445L203.176 249.821L195.72 259.63L195.839 259.741C196.291 259.194 196.88 258.802 197.605 258.565C198.331 258.329 199.128 258.263 199.997 258.365C201.268 258.516 202.345 258.944 203.228 259.65C204.11 260.355 204.761 261.28 205.18 262.425C205.598 263.569 205.746 264.885 205.622 266.374C205.499 267.862 205.083 269.133 204.376 270.187C203.668 271.241 202.737 272.022 201.582 272.529C200.45 273.018 199.143 273.175 197.66 272.999ZM197.84 270.444C199.196 270.605 200.324 270.287 201.224 269.492C202.126 268.676 202.639 267.523 202.762 266.035C202.886 264.547 202.571 263.307 201.819 262.317C201.069 261.305 200.016 260.719 198.66 260.558C197.304 260.398 196.175 260.726 195.273 261.542C194.373 262.337 193.861 263.479 193.737 264.967C193.614 266.455 193.927 267.705 194.678 268.717C195.43 269.708 196.484 270.284 197.84 270.444ZM213.055 274.499L223.062 254.816L214.292 253.778L214.006 257.222L211.146 256.883L211.648 250.824L226.108 252.535L225.875 255.342L216.137 274.864L213.055 274.499ZM235.737 277.506C234.318 277.338 233.099 276.947 232.08 276.332C231.084 275.699 230.339 274.881 229.845 273.878C229.35 272.875 229.155 271.746 229.259 270.492C229.374 269.11 229.843 267.963 230.668 267.052C231.513 266.143 232.784 265.391 234.481 264.798L237.687 263.664C238.657 263.328 239.425 262.828 239.994 262.165C240.562 261.503 240.882 260.736 240.955 259.864C241.039 258.843 240.767 257.995 240.139 257.32C239.531 256.647 238.656 256.243 237.512 256.107C236.368 255.972 235.431 256.172 234.702 256.709C233.996 257.226 233.601 257.995 233.516 259.016C233.446 259.866 233.624 260.682 234.051 261.462C234.5 262.245 235.141 262.901 235.974 263.429L238.935 265.261C240.565 266.248 241.718 267.297 242.396 268.408C243.076 269.497 243.358 270.743 243.242 272.147C243.085 274.039 242.324 275.473 240.959 276.449C239.618 277.407 237.877 277.759 235.737 277.506ZM235.949 274.955C237.241 275.108 238.285 274.898 239.082 274.327C239.901 273.737 240.357 272.879 240.45 271.752C240.526 270.838 240.351 269.98 239.926 269.178C239.5 268.376 238.85 267.698 237.976 267.144L235.05 265.284C233.424 264.254 232.269 263.216 231.586 262.169C230.903 261.122 230.616 259.928 230.727 258.589C230.826 257.398 231.177 256.399 231.778 255.59C232.38 254.781 233.188 254.2 234.201 253.848C235.215 253.495 236.389 253.398 237.723 253.556C239.058 253.714 240.193 254.085 241.129 254.668C242.065 255.251 242.761 256.009 243.219 256.944C243.676 257.878 243.855 258.941 243.757 260.131C243.645 261.471 243.169 262.573 242.327 263.44C241.487 264.285 240.151 265.04 238.321 265.703L235.146 266.841C234.242 267.163 233.515 267.668 232.966 268.354C232.44 269.022 232.14 269.802 232.066 270.695C231.971 271.843 232.266 272.801 232.951 273.569C233.657 274.34 234.657 274.802 235.949 274.955ZM270.282 281.272L277.738 271.463L277.619 271.353C277.167 271.9 276.578 272.292 275.853 272.528C275.127 272.764 274.33 272.831 273.461 272.728C272.211 272.58 271.134 272.152 270.23 271.444C269.348 270.739 268.697 269.814 268.278 268.669C267.862 267.503 267.714 266.187 267.836 264.72C267.961 263.211 268.376 261.939 269.082 260.907C269.79 259.853 270.721 259.082 271.873 258.596C273.028 258.089 274.336 257.922 275.798 258.095C277.281 258.27 278.547 258.742 279.595 259.51C280.667 260.26 281.463 261.234 281.984 262.434C282.507 263.612 282.706 264.956 282.581 266.465C282.484 267.635 282.219 268.763 281.787 269.849C281.376 270.938 280.798 271.965 280.055 272.929L273.46 281.649L270.282 281.272ZM274.798 270.536C276.154 270.696 277.282 270.379 278.183 269.584C279.085 268.767 279.597 267.615 279.721 266.127C279.844 264.639 279.53 263.399 278.778 262.408C278.027 261.396 276.974 260.81 275.618 260.65C274.262 260.489 273.133 260.817 272.231 261.634C271.331 262.429 270.819 263.57 270.696 265.059C270.572 266.547 270.886 267.797 271.636 268.809C272.388 269.8 273.442 270.375 274.798 270.536ZM292.901 284.272C291.481 284.104 290.265 283.681 289.252 283.002C288.261 282.305 287.522 281.413 287.035 280.325C286.549 279.215 286.364 277.97 286.478 276.588L287.324 266.383C287.441 264.979 287.827 263.802 288.484 262.849C289.14 261.896 290.011 261.205 291.095 260.775C292.202 260.326 293.465 260.186 294.884 260.354C296.325 260.524 297.54 260.958 298.531 261.655C299.523 262.33 300.263 263.212 300.75 264.301C301.238 265.389 301.423 266.634 301.307 268.038L300.461 278.243C300.346 279.625 299.96 280.803 299.301 281.777C298.645 282.729 297.763 283.43 296.656 283.879C295.572 284.309 294.32 284.44 292.901 284.272ZM293.105 281.816C294.376 281.966 295.426 281.683 296.256 280.965C297.108 280.229 297.588 279.212 297.696 277.915L298.542 267.71C298.65 266.414 298.345 265.315 297.628 264.414C296.934 263.495 295.952 262.96 294.681 262.809C293.409 262.659 292.348 262.952 291.495 263.688C290.665 264.406 290.197 265.413 290.089 266.71L289.243 276.915C289.135 278.212 289.429 279.32 290.123 280.239C290.839 281.14 291.833 281.666 293.105 281.816ZM293.737 274.194C293.165 274.126 292.713 273.891 292.383 273.487C292.074 273.085 291.944 272.587 291.994 271.991C292.041 271.417 292.249 270.98 292.616 270.68C293.006 270.361 293.487 270.236 294.059 270.304C294.631 270.371 295.072 270.606 295.381 271.007C295.713 271.39 295.855 271.869 295.807 272.443C295.758 273.038 295.538 273.495 295.148 273.814C294.779 274.135 294.309 274.262 293.737 274.194ZM305.308 285.418L305.525 282.803L311.817 283.548L313.333 265.274L306.649 269.25L306.914 266.061L312.482 262.759L316.391 263.221L314.677 283.886L319.825 284.496L319.609 287.111L305.308 285.418ZM324.426 287.681L324.67 284.747L332.383 278.028C333.698 276.874 334.673 275.83 335.306 274.896C335.942 273.94 336.298 272.995 336.376 272.059C336.483 270.763 336.208 269.699 335.549 268.87C334.912 268.043 333.979 267.557 332.75 267.412C331.394 267.251 330.292 267.507 329.445 268.18C328.619 268.855 328.15 269.862 328.039 271.202L325.179 270.863C325.338 269.465 325.756 268.291 326.434 267.34C327.135 266.371 328.038 265.673 329.143 265.246C330.269 264.821 331.542 264.692 332.961 264.86C334.36 265.026 335.544 265.445 336.515 266.118C337.509 266.773 338.24 267.632 338.708 268.697C339.176 269.761 339.353 270.984 339.238 272.366C339.129 273.684 338.671 274.95 337.864 276.165C337.058 277.379 335.791 278.721 334.065 280.191L327.853 285.446L338.435 286.698L338.218 289.313L324.426 287.681ZM368.769 293.251C367.371 293.086 366.165 292.664 365.152 291.986C364.161 291.289 363.422 290.407 362.932 289.34C362.443 288.273 362.254 287.07 362.365 285.73L365.225 286.069C365.118 287.366 365.393 288.429 366.052 289.258C366.733 290.069 367.72 290.551 369.013 290.704C370.326 290.859 371.375 290.597 372.159 289.917C372.942 289.237 373.385 288.28 373.488 287.047L373.625 285.389C373.734 284.07 373.459 283.007 372.798 282.199C372.138 281.391 371.151 280.909 369.838 280.754L367.454 280.472L367.692 277.602L373.91 272.67L364.503 271.556L364.72 268.941L377.018 270.397L376.78 273.267L370.084 278.561L370.113 278.21C372.231 278.461 373.865 279.266 375.015 280.626C376.164 281.986 376.654 283.686 376.485 285.727L376.348 287.385C376.237 288.725 375.843 289.859 375.167 290.788C374.512 291.72 373.631 292.41 372.524 292.858C371.419 293.286 370.168 293.417 368.769 293.251ZM391.695 295.643L392.119 290.54L381.632 289.299L382.005 284.802L392.323 272.208L395.437 272.577L384.814 285.747L384.709 287.022L392.335 287.925L392.806 282.249L395.666 282.587L394.555 295.981L391.695 295.643ZM407.164 297.796C405.279 297.572 403.773 296.9 402.646 295.779C401.52 294.659 400.919 293.256 400.845 291.573L403.705 291.912C403.735 292.838 404.068 293.597 404.704 294.187C405.341 294.757 406.242 295.11 407.408 295.248C408.742 295.406 409.768 295.162 410.485 294.517C411.223 293.875 411.646 292.894 411.755 291.576L411.943 289.312C412.053 287.994 411.798 286.933 411.18 286.13C410.583 285.33 409.628 284.852 408.315 284.696C407.488 284.598 406.75 284.736 406.098 285.11C405.449 285.462 404.956 285.984 404.621 286.674L401.761 286.336L402.988 273.471L415.191 274.915L414.974 277.53L405.536 276.413L404.798 284.151L405.688 284.256L404.729 284.98C404.812 283.981 405.269 283.241 406.101 282.759C406.953 282.281 408.047 282.12 409.382 282.278C411.269 282.48 412.682 283.238 413.622 284.551C414.584 285.846 414.978 287.546 414.803 289.65L414.616 291.915C414.445 293.977 413.705 295.543 412.397 296.611C411.091 297.659 409.346 298.054 407.164 297.796ZM426.314 300.062C424.831 299.887 423.554 299.424 422.482 298.675C421.433 297.906 420.649 296.923 420.128 295.723C419.607 294.524 419.408 293.18 419.531 291.691C419.628 290.522 419.882 289.393 420.294 288.304C420.726 287.217 421.314 286.192 422.057 285.228L428.652 276.508L431.83 276.884L424.374 286.693L424.493 286.804C424.945 286.257 425.534 285.865 426.259 285.628C426.985 285.392 427.782 285.326 428.651 285.428C429.922 285.579 430.999 286.007 431.882 286.713C432.764 287.418 433.415 288.343 433.834 289.488C434.252 290.632 434.4 291.948 434.276 293.437C434.153 294.925 433.737 296.196 433.03 297.25C432.322 298.304 431.391 299.085 430.236 299.592C429.104 300.081 427.797 300.238 426.314 300.062ZM426.494 297.507C427.85 297.668 428.978 297.35 429.878 296.555C430.78 295.739 431.293 294.586 431.416 293.098C431.54 291.61 431.225 290.37 430.473 289.38C429.723 288.368 428.67 287.781 427.314 287.621C425.958 287.461 424.829 287.789 423.927 288.605C423.027 289.4 422.515 290.542 422.391 292.03C422.268 293.518 422.581 294.768 423.332 295.78C424.084 296.771 425.138 297.347 426.494 297.507Z" fill="white"/>
<defs>
<linearGradient id="paint0_linear_14_22" x1="0" y1="0" x2="550" y2="330" gradientUnits="userSpaceOnUse">
<stop stop-color="#707BE5"/>
<stop offset="1" stop-color="#4A4E74"/>
</linearGradient>
</defs>
</svg>
