<svg width="670" height="433" viewBox="0 0 670 433" fill="none" xmlns="http://www.w3.org/2000/svg">
<rect width="642" height="383" rx="12" transform="matrix(0.996917 0.0784591 -0.0742825 0.997237 29 0)" fill="url(#paint0_linear_105_48)"/>
<path d="M419.709 370.293L425.494 364.249L425.817 365.578L420.035 371.583L419.709 370.293ZM422.284 374.227C421.434 374.16 420.714 373.856 420.126 373.315C419.551 372.775 419.133 372.02 418.871 371.05C418.623 370.067 418.55 368.898 418.651 367.542C418.751 366.199 418.996 365.061 419.386 364.129C419.79 363.198 420.316 362.504 420.966 362.046C421.629 361.577 422.386 361.376 423.237 361.443C424.087 361.51 424.799 361.827 425.372 362.393C425.959 362.948 426.376 363.716 426.624 364.699C426.885 365.682 426.966 366.845 426.866 368.188C426.764 369.544 426.512 370.688 426.109 371.619C425.719 372.538 425.194 373.219 424.532 373.662C423.884 374.106 423.135 374.294 422.284 374.227ZM422.399 372.692C422.891 372.73 423.31 372.576 423.657 372.229C424.018 371.869 424.311 371.337 424.537 370.633C424.764 369.929 424.915 369.065 424.991 368.041C425.066 367.043 425.043 366.179 424.924 365.447C424.804 364.716 424.593 364.144 424.289 363.732C424 363.308 423.61 363.077 423.118 363.038C422.639 363.001 422.219 363.168 421.857 363.541C421.496 363.9 421.202 364.432 420.976 365.137C420.75 365.841 420.599 366.692 420.525 367.689C420.449 368.713 420.47 369.591 420.59 370.322C420.709 371.054 420.92 371.626 421.224 372.037C421.529 372.436 421.92 372.654 422.399 372.692ZM431.572 374.738L432.334 364.506L429.943 365.1L429.597 363.829L433.037 362.334L434.473 362.447L433.546 374.893L431.572 374.738ZM440.002 376.264L438.287 375.326L445.442 362.468L447.129 363.504L440.002 376.264ZM449.617 372.647L455.402 366.602L455.724 367.932L449.942 373.936L449.617 372.647ZM452.192 376.581C451.341 376.514 450.622 376.21 450.034 375.669C449.459 375.129 449.04 374.374 448.778 373.404C448.531 372.421 448.457 371.252 448.558 369.895C448.658 368.553 448.904 367.415 449.294 366.483C449.698 365.551 450.224 364.857 450.873 364.4C451.536 363.931 452.293 363.73 453.144 363.797C453.995 363.863 454.707 364.18 455.279 364.747C455.866 365.301 456.284 366.07 456.532 367.052C456.793 368.036 456.873 369.199 456.773 370.542C456.672 371.898 456.42 373.042 456.016 373.973C455.627 374.892 455.101 375.573 454.44 376.016C453.792 376.46 453.043 376.648 452.192 376.581ZM452.306 375.045C452.798 375.084 453.217 374.93 453.564 374.583C453.925 374.223 454.219 373.691 454.445 372.987C454.671 372.282 454.823 371.418 454.899 370.394C454.973 369.397 454.951 368.533 454.831 367.801C454.712 367.07 454.501 366.498 454.197 366.086C453.908 365.662 453.517 365.431 453.025 365.392C452.547 365.354 452.126 365.522 451.764 365.895C451.403 366.254 451.11 366.786 450.883 367.49C450.657 368.195 450.507 369.046 450.433 370.043C450.356 371.067 450.378 371.945 450.497 372.676C450.617 373.408 450.828 373.979 451.132 374.391C451.436 374.79 451.828 375.008 452.306 375.045ZM461.479 377.091L462.242 366.86L459.851 367.454L459.504 366.183L462.945 364.688L464.38 364.801L463.453 377.247L461.479 377.091Z" fill="#B7B7B7"/>
<path d="M78.2889 263.678L79.6607 245.261L75.3574 246.33L74.7337 244.042L80.9266 241.352L83.5106 241.555L81.8419 263.957L78.2889 263.678ZM100.846 262.781C102.285 261.546 103.583 260.444 104.738 259.476C105.895 258.484 106.912 257.589 107.79 256.791C108.693 255.972 109.448 255.212 110.053 254.514C110.66 253.791 111.123 253.069 111.442 252.348C111.784 251.629 111.987 250.85 112.049 250.013C112.094 249.414 112.048 248.893 111.913 248.449C111.801 248.007 111.612 247.643 111.344 247.357C111.079 247.047 110.735 246.816 110.313 246.662C109.917 246.486 109.456 246.378 108.929 246.336C108.403 246.295 107.895 246.327 107.406 246.433C106.943 246.517 106.485 246.686 106.033 246.939C105.606 247.17 105.198 247.487 104.807 247.89C104.542 248.206 104.38 248.446 104.32 248.61C104.26 248.774 104.234 248.952 104.244 249.146L104.046 249.383L103.772 249.181L101.473 247.086C102.045 246.192 102.726 245.451 103.516 244.863C104.33 244.277 105.215 243.865 106.171 243.628C107.129 243.366 108.123 243.276 109.151 243.357C110.467 243.46 111.608 243.815 112.574 244.421C113.563 245.028 114.322 245.834 114.848 246.838C115.375 247.843 115.59 249.003 115.492 250.32C115.422 251.253 115.2 252.138 114.824 252.975C114.473 253.814 113.991 254.631 113.379 255.426C112.768 256.196 112.06 256.971 111.256 257.75C110.452 258.529 109.561 259.338 108.584 260.176C107.607 261.014 106.566 261.907 105.461 262.855L112.926 263.443C113.332 263.475 113.621 263.473 113.792 263.439C113.963 263.404 114.125 263.332 114.278 263.224L114.601 263.249L114.577 263.573L114.357 266.516L100.648 265.437L100.846 262.781ZM134.677 268.513C133.409 268.413 132.193 268.101 131.029 267.576C129.864 267.051 128.932 266.315 128.233 265.37L130.369 262.865L130.605 262.595L130.841 262.83C130.852 263 130.886 263.183 130.944 263.38C131.002 263.577 131.151 263.83 131.393 264.138C131.821 264.532 132.301 264.871 132.833 265.154C133.368 265.413 133.994 265.57 134.711 265.627C135.549 265.693 136.254 265.592 136.828 265.324C137.403 265.032 137.856 264.61 138.186 264.058C138.517 263.483 138.711 262.824 138.766 262.082C138.825 261.292 138.742 260.624 138.518 260.076C138.296 259.505 137.933 259.043 137.43 258.691C136.951 258.34 136.344 258.088 135.609 257.933C134.875 257.779 134.025 257.713 133.061 257.733L133.27 254.933C134.345 255.041 135.248 255.028 135.98 254.893C136.712 254.758 137.282 254.538 137.69 254.233C138.124 253.906 138.429 253.521 138.606 253.078C138.808 252.636 138.927 252.164 138.965 251.661C138.998 251.207 138.957 250.794 138.84 250.424C138.725 250.03 138.546 249.691 138.302 249.407C138.059 249.123 137.751 248.894 137.379 248.72C137.031 248.548 136.629 248.444 136.175 248.409C135.696 248.371 135.213 248.393 134.726 248.475C134.238 248.557 133.769 248.713 133.319 248.942C132.871 249.148 132.44 249.439 132.027 249.815L130.136 247.572C131.043 246.705 132.049 246.122 133.154 245.824C134.283 245.527 135.386 245.421 136.463 245.506C137.755 245.608 138.862 245.936 139.783 246.49C140.704 247.044 141.396 247.772 141.858 248.675C142.344 249.58 142.547 250.583 142.465 251.684C142.404 252.498 142.192 253.24 141.83 253.909C141.492 254.557 141.043 255.099 140.481 255.536C139.919 255.974 139.282 256.285 138.57 256.469C139.318 256.769 139.984 257.194 140.569 257.746C141.178 258.299 141.645 258.974 141.971 259.77C142.298 260.542 142.424 261.443 142.347 262.472C142.256 263.693 141.886 264.783 141.237 265.743C140.588 266.703 139.703 267.44 138.581 267.953C137.486 268.445 136.184 268.631 134.677 268.513ZM164.638 270.474L165.036 265.124L155.921 264.407L156.1 262.002L167.06 248.131L169.788 248.346L168.731 262.526L171.638 262.755L171.422 265.663L168.515 265.434L168.119 270.748L164.638 270.474ZM159.831 261.826L165.286 262.255L165.912 253.854L159.831 261.826ZM218.621 275.119C217.138 275.003 215.808 274.609 214.63 273.939C213.454 273.244 212.551 272.282 211.921 271.053L214.655 269.246L214.922 269.05L215.121 269.283C215.083 269.472 215.094 269.654 215.153 269.827C215.236 270.002 215.386 270.255 215.602 270.585C215.999 271.073 216.451 271.458 216.96 271.739C217.494 271.997 218.132 272.156 218.874 272.214C219.424 272.258 219.935 272.189 220.405 272.01C220.902 271.808 221.344 271.518 221.734 271.139C222.123 270.761 222.434 270.304 222.666 269.768C222.9 269.209 223.042 268.594 223.092 267.924C223.146 267.206 223.098 266.552 222.95 265.963C222.803 265.349 222.565 264.825 222.236 264.39C221.908 263.955 221.5 263.61 221.014 263.355C220.553 263.078 220.024 262.916 219.426 262.869C218.923 262.829 218.427 262.862 217.938 262.968C217.475 263.052 217.029 263.222 216.601 263.477C216.196 263.734 215.812 264.053 215.446 264.433L213.341 263.618L214.969 251.938L226.741 252.864L226.522 255.808L217.729 255.116L216.994 260.619C217.343 260.454 217.702 260.326 218.07 260.234C218.461 260.145 218.85 260.091 219.237 260.073C219.649 260.034 220.034 260.028 220.393 260.056C221.374 260.133 222.259 260.371 223.047 260.771C223.836 261.17 224.505 261.716 225.055 262.409C225.607 263.078 226.004 263.892 226.245 264.85C226.512 265.786 226.602 266.852 226.512 268.049C226.395 269.628 225.97 270.967 225.239 272.065C224.531 273.165 223.604 273.983 222.457 274.518C221.311 275.03 220.033 275.23 218.621 275.119ZM246.758 277.334C245.203 277.211 243.907 276.676 242.871 275.728C241.86 274.758 241.128 273.448 240.673 271.799C240.242 270.152 240.106 268.264 240.265 266.134C240.462 263.477 240.977 261.255 241.808 259.466C242.639 257.678 243.701 256.341 244.995 255.456C246.312 254.573 247.772 254.194 249.375 254.32C250.356 254.398 251.301 254.64 252.209 255.049C253.141 255.459 253.949 256.077 254.634 256.901L252.492 259.007L252.222 259.239L252.022 259.006C252.013 258.813 251.952 258.652 251.842 258.523C251.757 258.372 251.556 258.163 251.239 257.898C251.078 257.789 250.904 257.703 250.716 257.64C250.53 257.553 250.33 257.489 250.117 257.448C249.905 257.383 249.68 257.342 249.44 257.323C249.081 257.294 248.67 257.322 248.207 257.406C247.767 257.492 247.32 257.673 246.867 257.951C246.438 258.206 246.012 258.594 245.589 259.114C245.191 259.612 244.84 260.283 244.536 261.126C244.233 261.968 244.012 262.998 243.873 264.215C244.242 263.787 244.665 263.435 245.143 263.159C245.646 262.862 246.168 262.65 246.706 262.524C247.271 262.376 247.828 262.324 248.379 262.367C249.264 262.437 250.066 262.656 250.784 263.026C251.527 263.397 252.162 263.917 252.69 264.584C253.218 265.251 253.603 266.052 253.847 266.986C254.114 267.922 254.204 268.976 254.116 270.149C254.006 271.633 253.608 272.938 252.922 274.063C252.237 275.189 251.367 276.047 250.312 276.638C249.259 277.206 248.074 277.437 246.758 277.334ZM247.083 274.434C247.537 274.47 247.976 274.396 248.399 274.213C248.823 274.006 249.206 273.711 249.548 273.328C249.889 272.946 250.165 272.474 250.375 271.913C250.611 271.33 250.757 270.667 250.812 269.925C250.869 269.159 250.81 268.493 250.636 267.925C250.487 267.336 250.259 266.848 249.951 266.463C249.668 266.055 249.33 265.752 248.936 265.552C248.543 265.329 248.132 265.2 247.701 265.166C247.318 265.136 246.942 265.179 246.572 265.294C246.204 265.386 245.856 265.539 245.527 265.754C245.198 265.968 244.879 266.22 244.569 266.509C244.282 266.799 244.004 267.138 243.735 267.526C243.623 268.384 243.608 269.226 243.691 270.051C243.8 270.854 243.998 271.58 244.287 272.228C244.577 272.853 244.948 273.364 245.4 273.76C245.876 274.159 246.437 274.384 247.083 274.434ZM270.116 278.775C270.975 276.604 271.843 274.481 272.72 272.408C273.62 270.336 274.532 268.277 275.454 266.231C276.401 264.187 277.372 262.133 278.368 260.069L269.216 259.349L269.449 256.225L282.728 257.27L282.583 259.209C281.765 260.83 280.97 262.452 280.199 264.077C279.43 265.677 278.671 267.303 277.923 268.953C277.198 270.605 276.496 272.271 275.818 273.951C275.141 275.607 274.472 277.312 273.812 279.066L270.116 278.775ZM302.028 281.684C300.568 281.569 299.308 281.205 298.246 280.592C297.211 279.956 296.428 279.16 295.897 278.204C295.392 277.225 295.183 276.162 295.268 275.013C295.338 274.079 295.581 273.244 295.997 272.506C296.413 271.769 296.967 271.114 297.659 270.543C298.351 269.971 299.144 269.504 300.038 269.141C299.42 268.707 298.88 268.207 298.417 267.641C297.977 267.077 297.638 266.46 297.399 265.792C297.184 265.125 297.103 264.444 297.154 263.75C297.233 262.697 297.554 261.771 298.119 260.973C298.71 260.153 299.49 259.528 300.461 259.099C301.457 258.648 302.613 258.474 303.929 258.578C305.341 258.689 306.482 259.031 307.354 259.606C308.252 260.158 308.908 260.871 309.325 261.747C309.742 262.598 309.914 263.527 309.839 264.532C309.796 265.106 309.684 265.651 309.501 266.166C309.318 266.681 309.065 267.167 308.742 267.623C308.421 268.055 308.043 268.447 307.608 268.798C307.197 269.151 306.729 269.451 306.205 269.699C306.806 270.035 307.33 270.437 307.776 270.905C308.246 271.376 308.629 271.887 308.925 272.44C309.245 272.995 309.466 273.578 309.589 274.19C309.738 274.779 309.789 275.385 309.742 276.007C309.651 277.228 309.272 278.282 308.605 279.168C307.937 280.054 307.032 280.729 305.891 281.193C304.775 281.635 303.487 281.798 302.028 281.684ZM302.324 278.674C303.137 278.738 303.818 278.647 304.366 278.401C304.939 278.133 305.376 277.758 305.677 277.276C306.002 276.796 306.188 276.233 306.236 275.587C306.273 275.084 306.201 274.597 306.02 274.126C305.862 273.656 305.607 273.214 305.252 272.801C304.924 272.366 304.496 271.971 303.969 271.617C303.465 271.264 302.899 270.955 302.269 270.689C301.796 270.892 301.357 271.135 300.951 271.416C300.547 271.673 300.187 271.981 299.872 272.342C299.58 272.704 299.334 273.094 299.135 273.511C298.959 273.931 298.852 274.392 298.815 274.895C298.767 275.541 298.867 276.139 299.115 276.688C299.386 277.239 299.786 277.691 300.313 278.046C300.864 278.402 301.534 278.611 302.324 278.674ZM303.707 268.346C304.108 268.137 304.463 267.888 304.773 267.6C305.107 267.313 305.395 267.011 305.635 266.693C305.875 266.374 306.058 266.028 306.182 265.652C306.33 265.279 306.418 264.9 306.447 264.518C306.484 264.015 306.399 263.551 306.19 263.125C306.006 262.677 305.697 262.304 305.262 262.005C304.827 261.706 304.287 261.531 303.641 261.48C302.995 261.429 302.447 261.518 301.996 261.748C301.548 261.953 301.201 262.251 300.955 262.641C300.709 263.031 300.569 263.465 300.533 263.944C300.498 264.422 300.548 264.872 300.685 265.292C300.848 265.69 301.073 266.069 301.359 266.428C301.669 266.79 302.017 267.13 302.402 267.449C302.811 267.77 303.246 268.069 303.707 268.346ZM356.758 285.991C355.658 285.904 354.617 285.666 353.635 285.276C352.679 284.863 351.82 284.278 351.058 283.52L353.12 281.046L353.392 280.779L353.627 281.014C353.639 281.183 353.686 281.356 353.769 281.531C353.853 281.706 354.041 281.925 354.334 282.189C354.675 282.457 355.045 282.666 355.442 282.818C355.866 282.948 356.317 283.031 356.795 283.069C357.585 283.131 358.296 282.958 358.928 282.551C359.56 282.143 360.097 281.559 360.538 280.8C361.004 280.042 361.372 279.144 361.641 278.106C361.935 277.07 362.138 275.966 362.249 274.795C362.402 272.737 362.394 271.075 362.223 269.81C362.055 268.521 361.705 267.566 361.173 266.947C360.642 266.327 359.945 265.984 359.084 265.916C358.534 265.872 358.023 265.941 357.553 266.12C357.106 266.302 356.7 266.583 356.335 266.963C355.993 267.346 355.717 267.817 355.507 268.379C355.297 268.94 355.164 269.592 355.109 270.333C355.061 270.98 355.102 271.561 355.232 272.076C355.386 272.594 355.618 273.034 355.928 273.395C356.238 273.757 356.601 274.05 357.017 274.275C357.459 274.479 357.932 274.6 358.434 274.64C359.104 274.692 359.708 274.668 360.245 274.565C360.807 274.441 361.317 274.217 361.775 273.891C362.258 273.544 362.69 273.073 363.072 272.477L363.195 275.664C362.778 276.089 362.306 276.449 361.779 276.744C361.252 277.04 360.67 277.259 360.033 277.402C359.397 277.544 358.708 277.586 357.966 277.528C357.009 277.452 356.136 277.215 355.348 276.816C354.559 276.417 353.876 275.894 353.299 275.247C352.747 274.577 352.336 273.799 352.065 272.911C351.794 272.023 351.699 271.04 351.779 269.963C351.858 268.91 352.11 267.943 352.537 267.062C352.963 266.18 353.513 265.429 354.185 264.808C354.882 264.165 355.663 263.697 356.528 263.403C357.417 263.088 358.353 262.969 359.334 263.047C360.841 263.165 362.091 263.673 363.083 264.569C364.077 265.442 364.781 266.653 365.195 268.202C365.635 269.729 365.776 271.546 365.619 273.652C365.407 276.5 364.919 278.857 364.154 280.723C363.389 282.589 362.384 283.966 361.139 284.855C359.895 285.72 358.435 286.099 356.758 285.991ZM380.835 281.169L391.248 270.289L391.828 272.682L381.42 283.49L380.835 281.169ZM385.47 288.251C383.938 288.13 382.643 287.583 381.585 286.609C380.55 285.637 379.797 284.277 379.325 282.531C378.88 280.763 378.748 278.658 378.929 276.216C379.109 273.799 379.551 271.752 380.253 270.073C380.98 268.397 381.927 267.148 383.096 266.325C384.29 265.48 385.652 265.118 387.184 265.238C388.715 265.359 389.996 265.929 391.027 266.949C392.084 267.947 392.835 269.33 393.281 271.099C393.751 272.869 393.896 274.963 393.716 277.38C393.534 279.821 393.08 281.88 392.353 283.556C391.652 285.21 390.707 286.436 389.516 287.233C388.35 288.032 387.001 288.371 385.47 288.251ZM385.675 285.486C386.561 285.556 387.315 285.278 387.94 284.653C388.589 284.006 389.118 283.049 389.525 281.781C389.933 280.513 390.205 278.958 390.342 277.115C390.476 275.32 390.435 273.764 390.221 272.447C390.006 271.13 389.625 270.101 389.079 269.36C388.558 268.597 387.855 268.18 386.97 268.11C386.108 268.043 385.352 268.344 384.7 269.015C384.05 269.662 383.522 270.62 383.115 271.888C382.707 273.155 382.437 274.687 382.303 276.482C382.166 278.325 382.204 279.905 382.419 281.222C382.634 282.539 383.015 283.568 383.561 284.309C384.109 285.026 384.814 285.418 385.675 285.486ZM412.057 289.946L413.429 271.529L409.125 272.599L408.502 270.311L414.694 267.62L417.278 267.824L415.61 290.225L412.057 289.946ZM434.614 289.049C436.053 287.814 437.351 286.712 438.506 285.744C439.663 284.752 440.68 283.857 441.558 283.059C442.461 282.24 443.215 281.481 443.821 280.782C444.428 280.059 444.891 279.337 445.21 278.616C445.552 277.897 445.754 277.118 445.817 276.281C445.861 275.682 445.816 275.161 445.681 274.717C445.569 274.275 445.38 273.911 445.112 273.625C444.846 273.315 444.503 273.084 444.081 272.93C443.685 272.755 443.224 272.646 442.697 272.605C442.171 272.563 441.663 272.595 441.174 272.701C440.71 272.785 440.253 272.954 439.801 273.207C439.374 273.438 438.966 273.755 438.575 274.158C438.31 274.474 438.148 274.714 438.088 274.878C438.027 275.042 438.002 275.22 438.012 275.414L437.814 275.651L437.54 275.449L435.241 273.354C435.813 272.46 436.494 271.719 437.284 271.131C438.098 270.545 438.983 270.134 439.939 269.896C440.897 269.634 441.89 269.544 442.919 269.625C444.235 269.728 445.376 270.083 446.342 270.689C447.331 271.296 448.09 272.102 448.616 273.107C449.143 274.111 449.358 275.271 449.26 276.588C449.19 277.521 448.968 278.406 448.592 279.244C448.241 280.083 447.759 280.899 447.146 281.694C446.536 282.464 445.828 283.239 445.024 284.018C444.22 284.798 443.329 285.606 442.352 286.444C441.375 287.282 440.334 288.175 439.229 289.123L446.694 289.711C447.1 289.743 447.389 289.741 447.56 289.707C447.731 289.672 447.893 289.601 448.046 289.492L448.369 289.518L448.345 289.841L448.125 292.785L434.416 291.706L434.614 289.049ZM496.259 296.97C494.991 296.87 493.775 296.558 492.61 296.033C491.446 295.508 490.514 294.772 489.815 293.827L491.951 291.323L492.187 291.052L492.422 291.287C492.434 291.457 492.468 291.64 492.526 291.837C492.583 292.034 492.733 292.287 492.975 292.595C493.403 292.99 493.883 293.328 494.415 293.611C494.95 293.87 495.576 294.027 496.293 294.084C497.131 294.15 497.836 294.049 498.41 293.781C498.985 293.489 499.438 293.067 499.767 292.516C500.099 291.94 500.293 291.281 500.348 290.539C500.407 289.749 500.324 289.081 500.1 288.533C499.878 287.962 499.515 287.5 499.012 287.148C498.533 286.797 497.926 286.545 497.191 286.391C496.457 286.236 495.607 286.17 494.643 286.19L494.852 283.39C495.927 283.498 496.83 283.485 497.562 283.35C498.294 283.215 498.864 282.995 499.272 282.69C499.705 282.363 500.011 281.978 500.188 281.535C500.39 281.093 500.509 280.621 500.547 280.119C500.58 279.664 500.539 279.251 500.422 278.881C500.307 278.487 500.128 278.148 499.884 277.864C499.641 277.58 499.333 277.351 498.961 277.177C498.612 277.005 498.211 276.901 497.756 276.866C497.278 276.828 496.795 276.85 496.308 276.932C495.82 277.014 495.351 277.17 494.901 277.399C494.452 277.605 494.022 277.896 493.609 278.273L491.718 276.029C492.625 275.162 493.631 274.579 494.736 274.281C495.865 273.984 496.968 273.879 498.045 273.963C499.337 274.065 500.444 274.393 501.365 274.947C502.286 275.501 502.978 276.229 503.44 277.132C503.926 278.037 504.128 279.04 504.046 280.141C503.986 280.955 503.774 281.697 503.411 282.366C503.074 283.014 502.625 283.556 502.063 283.993C501.501 284.431 500.864 284.742 500.152 284.926C500.9 285.226 501.566 285.652 502.151 286.203C502.76 286.757 503.227 287.431 503.552 288.227C503.88 288.999 504.005 289.9 503.929 290.929C503.838 292.15 503.468 293.24 502.819 294.2C502.17 295.16 501.284 295.897 500.163 296.411C499.068 296.902 497.766 297.089 496.259 296.97ZM526.22 298.931L526.618 293.582L517.502 292.864L517.682 290.459L528.642 276.588L531.37 276.803L530.313 290.983L533.22 291.212L533.004 294.12L530.097 293.891L529.701 299.205L526.22 298.931ZM521.413 290.283L526.868 290.712L527.494 282.312L521.413 290.283ZM552.389 301.387C550.906 301.271 549.576 300.877 548.398 300.207C547.222 299.512 546.319 298.551 545.689 297.321L548.423 295.514L548.69 295.319L548.889 295.551C548.851 295.741 548.862 295.922 548.921 296.095C549.004 296.27 549.154 296.523 549.37 296.853C549.767 297.341 550.219 297.726 550.728 298.007C551.262 298.265 551.9 298.424 552.642 298.482C553.192 298.526 553.703 298.458 554.173 298.278C554.67 298.076 555.112 297.786 555.502 297.407C555.891 297.029 556.202 296.572 556.434 296.036C556.668 295.477 556.81 294.862 556.86 294.192C556.914 293.474 556.866 292.82 556.717 292.231C556.571 291.618 556.333 291.093 556.004 290.658C555.676 290.223 555.268 289.878 554.782 289.623C554.321 289.346 553.792 289.184 553.194 289.137C552.691 289.097 552.195 289.131 551.706 289.237C551.243 289.32 550.797 289.49 550.369 289.745C549.964 290.002 549.58 290.321 549.214 290.702L547.109 289.886L548.737 278.206L560.509 279.132L560.29 282.076L551.497 281.384L550.762 286.887C551.111 286.722 551.47 286.594 551.838 286.502C552.229 286.413 552.618 286.359 553.005 286.342C553.417 286.302 553.802 286.296 554.161 286.324C555.142 286.401 556.027 286.64 556.815 287.039C557.604 287.438 558.273 287.984 558.823 288.677C559.375 289.347 559.772 290.16 560.013 291.118C560.28 292.054 560.369 293.12 560.28 294.317C560.163 295.897 559.738 297.235 559.006 298.333C558.299 299.433 557.372 300.251 556.225 300.787C555.079 301.298 553.801 301.499 552.389 301.387ZM580.526 303.602C578.971 303.48 577.675 302.944 576.639 301.996C575.628 301.026 574.895 299.716 574.441 298.067C574.01 296.421 573.874 294.532 574.032 292.402C574.23 289.745 574.745 287.523 575.576 285.735C576.407 283.946 577.469 282.61 578.763 281.724C580.08 280.841 581.54 280.462 583.143 280.588C584.124 280.666 585.069 280.909 585.977 281.317C586.909 281.727 587.717 282.345 588.402 283.169L586.259 285.275L585.99 285.507L585.79 285.275C585.781 285.081 585.72 284.92 585.61 284.791C585.525 284.64 585.324 284.431 585.006 284.166C584.846 284.057 584.672 283.971 584.484 283.908C584.298 283.821 584.098 283.757 583.885 283.716C583.673 283.651 583.447 283.61 583.208 283.591C582.849 283.563 582.438 283.59 581.975 283.674C581.535 283.76 581.088 283.942 580.634 284.219C580.206 284.474 579.78 284.862 579.357 285.382C578.958 285.88 578.608 286.551 578.304 287.394C578.001 288.237 577.78 289.266 577.641 290.483C578.01 290.055 578.433 289.703 578.911 289.428C579.414 289.13 579.935 288.918 580.474 288.792C581.039 288.644 581.596 288.592 582.147 288.635C583.032 288.705 583.834 288.924 584.552 289.294C585.295 289.665 585.93 290.185 586.458 290.852C586.986 291.52 587.371 292.32 587.615 293.254C587.882 294.19 587.972 295.244 587.884 296.417C587.774 297.901 587.376 299.206 586.69 300.331C586.005 301.457 585.135 302.316 584.08 302.907C583.027 303.474 581.842 303.705 580.526 303.602ZM580.851 300.702C581.305 300.738 581.744 300.664 582.167 300.481C582.591 300.274 582.974 299.979 583.316 299.596C583.657 299.214 583.933 298.742 584.143 298.181C584.379 297.598 584.525 296.935 584.58 296.193C584.637 295.427 584.578 294.761 584.404 294.193C584.255 293.604 584.027 293.116 583.719 292.731C583.436 292.324 583.098 292.02 582.703 291.821C582.311 291.597 581.899 291.468 581.469 291.434C581.086 291.404 580.71 291.447 580.34 291.562C579.972 291.654 579.624 291.807 579.295 292.022C578.966 292.237 578.647 292.488 578.336 292.777C578.05 293.067 577.772 293.406 577.503 293.795C577.391 294.652 577.376 295.494 577.459 296.319C577.568 297.122 577.766 297.848 578.055 298.496C578.345 299.121 578.716 299.632 579.168 300.028C579.644 300.427 580.205 300.652 580.851 300.702Z" fill="#B7B7B7"/>
<path d="M244.591 82.7149L247.225 82.9222L246.373 94.3706C246.282 95.5888 245.915 96.6457 245.273 97.5413C244.632 98.4312 243.772 99.1045 242.696 99.5612C241.619 100.012 240.385 100.183 238.991 100.073C237.603 99.964 236.411 99.6023 235.414 98.9881C234.418 98.3682 233.668 97.5683 233.166 96.5884C232.664 95.6028 232.458 94.5009 232.549 93.2827L233.402 81.8343L236.027 82.0409L235.19 93.2768C235.131 94.0644 235.252 94.7778 235.552 95.4169C235.858 96.0565 236.317 96.5771 236.931 96.9788C237.546 97.3748 238.292 97.6073 239.17 97.6764C240.053 97.746 240.828 97.6331 241.494 97.3379C242.166 97.0374 242.694 96.5946 243.08 96.0094C243.471 95.4246 243.696 94.7384 243.755 93.9509L244.591 82.7149ZM252.66 93.0616L252.082 100.813L249.542 100.613L250.514 87.5582L252.953 87.7501L252.795 89.8749L252.956 89.8876C253.308 89.2199 253.819 88.7017 254.49 88.3327C255.167 87.9643 255.996 87.8186 256.976 87.8957C257.865 87.9657 258.63 88.214 259.271 88.6405C259.912 89.0614 260.389 89.6519 260.703 90.4118C261.016 91.1717 261.133 92.0899 261.053 93.1665L260.434 101.47L257.894 101.27L258.49 93.2725C258.56 92.3263 258.369 91.5674 257.916 90.996C257.463 90.419 256.806 90.0966 255.945 90.0288C255.356 89.9824 254.823 90.0687 254.345 90.2876C253.873 90.5069 253.485 90.8525 253.182 91.3245C252.885 91.7913 252.711 92.3703 252.66 93.0616ZM263.841 101.738L264.814 88.6836L267.354 88.8835L266.382 101.938L263.841 101.738ZM266.247 86.7702C265.805 86.7355 265.437 86.5583 265.141 86.2387C264.852 85.9138 264.723 85.5446 264.754 85.131C264.785 84.7117 264.967 84.367 265.301 84.0969C265.64 83.8215 266.031 83.7012 266.473 83.736C266.915 83.7708 267.28 83.9506 267.569 84.2754C267.865 84.595 267.997 84.9645 267.965 85.3838C267.935 85.7974 267.749 86.1419 267.41 86.4172C267.076 86.6873 266.689 86.805 266.247 86.7702ZM281.936 90.0311L276.231 102.713L273.513 102.499L269.744 89.0716L272.471 89.2862L275.028 99.5924L275.164 99.6031L279.209 89.8165L281.936 90.0311ZM288.513 103.945C287.227 103.844 286.14 103.482 285.252 102.859C284.37 102.231 283.714 101.396 283.285 100.353C282.861 99.3055 282.7 98.1045 282.801 96.7503C282.901 95.4131 283.238 94.2542 283.812 93.2735C284.392 92.2933 285.154 91.5525 286.097 91.0511C287.046 90.5501 288.127 90.3473 289.339 90.4427C290.075 90.5007 290.78 90.6787 291.453 90.9767C292.126 91.2747 292.717 91.706 293.228 92.2705C293.739 92.8351 294.121 93.5463 294.377 94.4042C294.632 95.2564 294.716 96.2746 294.628 97.4588L294.561 98.3597L284.186 97.5433L284.328 95.6394L292.213 96.26C292.263 95.5914 292.171 94.9886 291.937 94.4516C291.704 93.9089 291.353 93.468 290.882 93.1289C290.417 92.7903 289.856 92.5951 289.199 92.5434C288.486 92.4872 287.85 92.6138 287.291 92.9232C286.738 93.2274 286.297 93.6486 285.966 94.1868C285.642 94.7198 285.455 95.3121 285.406 95.9637L285.296 97.451C285.231 98.3236 285.328 99.0779 285.589 99.7139C285.855 100.35 286.253 100.852 286.784 101.219C287.316 101.58 287.952 101.789 288.694 101.848C289.176 101.886 289.62 101.852 290.027 101.747C290.434 101.637 290.792 101.454 291.101 101.199C291.411 100.944 291.657 100.619 291.841 100.223L294.213 100.846C293.968 101.539 293.576 102.132 293.038 102.626C292.506 103.114 291.855 103.476 291.085 103.711C290.322 103.942 289.464 104.02 288.513 103.945ZM296.95 104.344L297.922 91.2893L300.378 91.4825L300.223 93.5563L300.359 93.567C300.65 92.8831 301.11 92.3637 301.74 92.0086C302.377 91.6484 303.077 91.4983 303.842 91.5585C304.001 91.571 304.187 91.5914 304.402 91.6196C304.622 91.6484 304.793 91.6761 304.917 91.7029L304.736 94.1337C304.636 94.0973 304.457 94.0519 304.199 93.9974C303.941 93.9372 303.682 93.8969 303.422 93.8764C302.821 93.8291 302.276 93.9145 301.787 94.1325C301.304 94.3452 300.91 94.6647 300.605 95.091C300.3 95.5115 300.126 96.0051 300.084 96.5717L299.49 104.544L296.95 104.344ZM316.647 95.9688L314.314 96.1955C314.24 95.8933 314.108 95.6008 313.918 95.318C313.734 95.0357 313.473 94.7957 313.134 94.598C312.795 94.4004 312.363 94.2809 311.836 94.2394C311.117 94.1828 310.504 94.297 309.999 94.5821C309.494 94.8615 309.222 95.2534 309.185 95.7577C309.152 96.1939 309.287 96.558 309.591 96.8497C309.894 97.1414 310.398 97.4005 311.105 97.6271L313.143 98.2663C314.323 98.6384 315.186 99.1366 315.732 99.7609C316.278 100.385 316.517 101.159 316.448 102.083C316.39 102.865 316.111 103.544 315.612 104.12C315.12 104.691 314.458 105.118 313.628 105.4C312.804 105.683 311.865 105.783 310.811 105.7C309.35 105.585 308.181 105.179 307.304 104.484C306.428 103.782 305.928 102.845 305.804 101.673L308.288 101.492C308.393 102.144 308.671 102.653 309.122 103.019C309.574 103.38 310.182 103.59 310.947 103.65C311.78 103.716 312.458 103.595 312.982 103.289C313.507 102.977 313.788 102.569 313.826 102.064C313.856 101.657 313.729 101.302 313.443 101C313.164 100.699 312.718 100.453 312.105 100.262L309.932 99.6037C308.735 99.2302 307.867 98.7174 307.329 98.0652C306.797 97.4134 306.565 96.623 306.634 95.6937C306.692 94.9231 306.957 94.2658 307.431 93.7217C307.904 93.1777 308.532 92.774 309.315 92.5108C310.099 92.2419 310.981 92.146 311.961 92.2231C313.371 92.3341 314.458 92.7275 315.223 93.4031C315.988 94.0732 316.462 94.9284 316.647 95.9688ZM322.736 106.664C321.909 106.599 321.173 106.387 320.528 106.029C319.882 105.664 319.386 105.172 319.039 104.552C318.698 103.933 318.559 103.195 318.623 102.339C318.678 101.603 318.865 101.008 319.183 100.554C319.502 100.1 319.912 99.7537 320.415 99.5139C320.917 99.2742 321.47 99.1069 322.076 99.012C322.681 98.9172 323.295 98.8572 323.918 98.8322C324.707 98.803 325.346 98.7793 325.838 98.761C326.33 98.737 326.691 98.6657 326.922 98.5471C327.153 98.4285 327.28 98.2162 327.303 97.9102L327.307 97.8507C327.362 97.1085 327.196 96.5169 326.807 96.0759C326.424 95.6354 325.822 95.3829 325 95.3182C324.145 95.2509 323.457 95.3877 322.936 95.7285C322.421 96.0641 322.053 96.4541 321.832 96.8983L319.485 96.1665C319.827 95.3955 320.288 94.7878 320.868 94.3433C321.454 93.8936 322.112 93.5863 322.843 93.4215C323.573 93.251 324.332 93.1968 325.119 93.2587C325.641 93.2998 326.188 93.4055 326.762 93.5761C327.343 93.7415 327.876 94.0057 328.361 94.3688C328.853 94.7323 329.24 95.2273 329.524 95.8538C329.808 96.4746 329.915 97.2609 329.844 98.2128L329.198 106.882L326.717 106.687L326.85 104.902L326.748 104.894C326.56 105.21 326.289 105.513 325.937 105.805C325.585 106.096 325.143 106.326 324.612 106.495C324.081 106.664 323.456 106.721 322.736 106.664ZM323.441 104.668C324.143 104.723 324.754 104.631 325.273 104.393C325.798 104.155 326.207 103.823 326.501 103.395C326.801 102.963 326.97 102.489 327.009 101.974L327.134 100.291C327.037 100.374 326.855 100.445 326.588 100.504C326.328 100.558 326.031 100.6 325.698 100.631C325.366 100.656 325.043 100.679 324.728 100.7C324.413 100.715 324.15 100.728 323.938 100.74C323.441 100.764 322.983 100.833 322.564 100.948C322.151 101.064 321.812 101.251 321.548 101.51C321.29 101.763 321.144 102.116 321.11 102.569C321.063 103.198 321.26 103.693 321.7 104.052C322.141 104.406 322.721 104.611 323.441 104.668ZM336.419 89.9419L335.122 107.348L332.582 107.148L333.879 89.742L336.419 89.9419ZM345.076 108.132L346.373 90.7253L352.745 91.2268C353.98 91.324 354.987 91.6084 355.767 92.0801C356.547 92.5462 357.112 93.1407 357.463 93.8636C357.814 94.5808 357.957 95.3701 357.893 96.2313C357.839 96.9566 357.66 97.5581 357.357 98.0357C357.054 98.5077 356.668 98.8763 356.198 99.1414C355.734 99.4012 355.231 99.5782 354.688 99.6723L354.676 99.8423C355.251 99.9161 355.801 100.147 356.325 100.536C356.854 100.92 357.277 101.44 357.593 102.098C357.908 102.755 358.033 103.535 357.966 104.436C357.899 105.325 357.63 106.108 357.158 106.783C356.693 107.453 356.011 107.961 355.113 108.306C354.216 108.646 353.094 108.763 351.746 108.657L345.076 108.132ZM347.869 106.086L351.659 106.384C352.916 106.483 353.835 106.31 354.415 105.866C354.995 105.421 355.312 104.834 355.367 104.103C355.408 103.553 355.306 103.038 355.063 102.557C354.82 102.076 354.45 101.68 353.955 101.367C353.466 101.055 352.87 100.871 352.167 100.816L348.285 100.51L347.869 106.086ZM348.437 98.4622L351.955 98.739C352.544 98.7854 353.082 98.7137 353.569 98.5241C354.061 98.3349 354.462 98.0472 354.77 97.6611C355.084 97.2698 355.262 96.7936 355.303 96.2327C355.357 95.5131 355.15 94.8898 354.682 94.3629C354.214 93.8359 353.459 93.5314 352.417 93.4494L348.832 93.1672L348.437 98.4622ZM364.303 109.935C363.476 109.87 362.74 109.659 362.094 109.3C361.449 108.936 360.953 108.444 360.606 107.824C360.265 107.204 360.126 106.466 360.19 105.611C360.245 104.874 360.432 104.279 360.75 103.825C361.069 103.372 361.479 103.025 361.981 102.785C362.484 102.546 363.037 102.378 363.643 102.283C364.248 102.189 364.862 102.129 365.485 102.104C366.273 102.074 366.913 102.051 367.405 102.032C367.896 102.008 368.258 101.937 368.489 101.818C368.72 101.7 368.847 101.488 368.869 101.182L368.874 101.122C368.929 100.38 368.762 99.7883 368.374 99.3473C367.991 98.9068 367.388 98.6542 366.567 98.5896C365.712 98.5223 365.024 98.659 364.502 98.9999C363.987 99.3355 363.619 99.7255 363.398 100.17L361.051 99.4378C361.394 98.6669 361.855 98.0592 362.435 97.6147C363.021 97.1649 363.679 96.8577 364.409 96.6929C365.14 96.5224 365.899 96.4682 366.686 96.5301C367.207 96.5711 367.755 96.6769 368.329 96.8475C368.909 97.0128 369.442 97.2771 369.928 97.6402C370.419 98.0037 370.807 98.4987 371.091 99.1252C371.375 99.746 371.482 100.532 371.411 101.484L370.765 110.153L368.284 109.958L368.417 108.173L368.315 108.165C368.126 108.481 367.856 108.785 367.504 109.076C367.152 109.367 366.71 109.598 366.179 109.767C365.648 109.936 365.023 109.992 364.303 109.935ZM365.007 107.939C365.71 107.994 366.321 107.903 366.84 107.664C367.365 107.426 367.774 107.094 368.068 106.667C368.368 106.234 368.537 105.761 368.575 105.245L368.701 103.562C368.603 103.646 368.421 103.717 368.155 103.776C367.895 103.829 367.598 103.871 367.265 103.902C366.933 103.927 366.609 103.95 366.294 103.971C365.98 103.986 365.717 104 365.505 104.012C365.008 104.035 364.55 104.105 364.131 104.22C363.718 104.335 363.379 104.522 363.115 104.781C362.857 105.034 362.711 105.387 362.677 105.841C362.63 106.47 362.827 106.964 363.267 107.323C363.708 107.677 364.288 107.883 365.007 107.939ZM377.267 102.868L376.689 110.62L374.149 110.42L375.121 97.3649L377.56 97.5569L377.401 99.6816L377.563 99.6944C377.915 99.0267 378.426 98.5084 379.097 98.1395C379.774 97.771 380.603 97.6254 381.583 97.7025C382.472 97.7725 383.237 98.0208 383.877 98.4473C384.518 98.8682 384.996 99.4586 385.309 100.219C385.623 100.978 385.74 101.897 385.66 102.973L385.041 111.277L382.501 111.077L383.097 103.079C383.167 102.133 382.976 101.374 382.523 100.803C382.07 100.226 381.413 99.9033 380.552 99.8356C379.963 99.7892 379.43 99.8755 378.952 100.094C378.48 100.314 378.092 100.659 377.789 101.131C377.492 101.598 377.318 102.177 377.267 102.868ZM391.115 107.301L391.329 104.197L391.771 104.232L397.382 99.1169L400.424 99.3563L394.025 105.179L393.625 105.148L391.115 107.301ZM388.448 111.545L389.745 94.1388L392.285 94.3387L390.989 111.745L388.448 111.545ZM396.69 112.194L392.479 105.622L394.362 103.983L399.808 112.439L396.69 112.194Z" fill="#B7B7B7"/>
<path d="M96.4937 101.87L98.6546 72.8595L111.229 73.8492C113.438 74.023 115.271 74.4665 116.728 75.1796C118.194 75.8934 119.269 76.8234 119.953 77.9696C120.646 79.1165 120.938 80.4266 120.828 81.8998C120.749 82.9669 120.44 83.921 119.903 84.7621C119.375 85.6039 118.669 86.2893 117.784 86.8181C116.9 87.3375 115.888 87.6663 114.748 87.8045L114.727 88.0878C115.969 88.2331 117.079 88.6386 118.055 89.3043C119.031 89.9606 119.784 90.8225 120.312 91.89C120.841 92.948 121.054 94.1616 120.952 95.531C120.834 97.1175 120.314 98.4966 119.391 99.6683C118.477 100.841 117.234 101.721 115.662 102.31C114.089 102.899 112.25 103.11 110.145 102.944L96.4937 101.87ZM104.836 96.2003L108.517 96.4901C109.839 96.5941 110.849 96.4266 111.546 95.9875C112.244 95.539 112.629 94.8284 112.702 93.8557C112.752 93.1758 112.64 92.5875 112.363 92.0908C112.087 91.5941 111.67 91.2003 111.112 90.9095C110.564 90.6194 109.889 90.4427 109.086 90.3796L105.291 90.0809L104.836 96.2003ZM105.654 85.208L108.883 85.4621C109.572 85.5164 110.189 85.4557 110.734 85.2801C111.279 85.1045 111.713 84.8252 112.036 84.4421C112.369 84.0504 112.557 83.5571 112.602 82.9621C112.669 82.065 112.399 81.3551 111.792 80.8324C111.186 80.3002 110.392 79.9955 109.41 79.9182L106.068 79.6552L105.654 85.208ZM129.279 104.792C127.891 104.683 126.681 104.36 125.648 103.823C124.625 103.277 123.846 102.512 123.312 101.53C122.777 100.547 122.564 99.3338 122.671 97.889C122.76 96.6991 123.038 95.6999 123.507 94.8913C123.976 94.0734 124.594 93.4239 125.361 92.9428C126.128 92.4617 127.004 92.1174 127.988 91.9099C128.981 91.7031 130.043 91.6014 131.173 91.6049C132.398 91.6063 133.383 91.5698 134.129 91.4956C134.886 91.4126 135.438 91.2614 135.787 91.0419C136.136 90.8129 136.327 90.4907 136.357 90.0751L136.362 90.0185C136.404 89.4519 136.219 89.0004 135.807 88.664C135.396 88.3276 134.85 88.1327 134.17 88.0792C133.424 88.0205 132.803 88.1378 132.307 88.4312C131.82 88.7159 131.505 89.1898 131.36 89.8528L124.167 89.2867C124.359 87.972 124.87 86.7869 125.699 85.7312C126.538 84.6669 127.705 83.8563 129.199 83.2995C130.694 82.7332 132.523 82.5352 134.684 82.7053C136.242 82.8279 137.626 83.122 138.835 83.5876C140.045 84.0438 141.06 84.6319 141.88 85.3518C142.7 86.0624 143.305 86.8699 143.693 87.7743C144.092 88.6701 144.254 89.6232 144.178 90.6337L143.068 105.536L135.761 104.96L135.989 101.901L135.819 101.887C135.325 102.665 134.747 103.28 134.087 103.732C133.436 104.184 132.705 104.492 131.896 104.656C131.095 104.821 130.223 104.867 129.279 104.792ZM132.195 100.063C132.79 100.11 133.356 100.031 133.893 99.8265C134.44 99.6226 134.896 99.3023 135.261 98.8656C135.626 98.4288 135.833 97.88 135.882 97.2189L136.017 95.4057C135.803 95.4744 135.576 95.5372 135.334 95.5942C135.102 95.6519 134.851 95.7034 134.582 95.7487C134.322 95.7947 134.044 95.8346 133.747 95.8682C133.459 95.9026 133.158 95.9311 132.843 95.9538C132.232 96.0007 131.724 96.1175 131.321 96.3043C130.928 96.4823 130.626 96.7197 130.414 97.0165C130.212 97.3046 130.097 97.6375 130.069 98.0152C130.024 98.6196 130.201 99.099 130.602 99.4536C131.003 99.8081 131.534 100.011 132.195 100.063ZM155.532 94.2059L154.62 106.445L146.803 105.83L148.424 84.0716L155.844 84.6556L155.536 88.7919L155.763 88.8097C156.337 87.4681 157.249 86.4522 158.497 85.762C159.754 85.0725 161.18 84.7906 162.776 84.9161C164.315 85.0373 165.624 85.4965 166.704 86.2939C167.794 87.0827 168.605 88.1154 169.137 89.3921C169.678 90.6695 169.885 92.0964 169.758 93.6727L168.724 107.555L160.907 106.94L161.819 94.7007C161.909 93.6249 161.698 92.7581 161.187 92.1005C160.685 91.4436 159.943 91.0765 158.961 90.9992C158.319 90.9487 157.747 91.0461 157.244 91.2915C156.752 91.5282 156.359 91.8963 156.065 92.3956C155.772 92.8855 155.595 93.4889 155.532 94.2059ZM179.991 103.255L180.74 93.967L181.759 94.0473L187.571 87.1526L196.351 87.8435L186.666 98.537L184.457 98.3632L179.991 103.255ZM172.583 107.858L174.744 78.8479L182.561 79.4631L180.4 108.474L172.583 107.858ZM186.007 108.915L181.664 99.9101L187.176 94.7585L194.957 109.619L186.007 108.915Z" fill="white"/>
<path fill-rule="evenodd" clip-rule="evenodd" d="M79.9017 76.2195C80.6723 76.5822 81.6099 76.807 82.7145 76.8939C83.887 76.9862 84.9484 76.8874 85.8987 76.5974C86.849 76.3074 87.6175 75.818 88.2044 75.1289C88.7913 74.4399 89.1263 73.5373 89.2095 72.421L89.2253 72.2086L96.1199 72.7512C96.3285 72.8285 96.5443 72.8955 96.7676 72.9522L94.6245 101.723L73.6892 100.075L75.8434 71.1554L86.1751 71.9685L86.1656 72.096C86.0938 73.0592 85.7563 73.728 85.153 74.1023C84.5492 74.4822 83.8112 74.6378 82.9389 74.5692C82.3215 74.5206 81.8152 74.3953 81.42 74.1932C81.0301 73.9972 80.7257 73.7624 80.5068 73.4887C80.2875 73.2206 80.125 72.9542 80.0194 72.6895L77.1995 73.1429C77.3413 73.7639 77.6343 74.3426 78.0786 74.8791C78.523 75.4157 79.1306 75.8624 79.9017 76.2195ZM96.7676 72.9522C97.1714 73.055 97.5993 73.1241 98.0511 73.1596C99.3256 73.2599 100.451 73.0664 101.427 72.579C102.404 72.0916 103.184 71.3637 103.769 70.3953C104.36 69.4273 104.705 68.269 104.806 66.9204C104.906 65.5719 104.737 64.3702 104.297 63.3154C103.863 62.2611 103.199 61.4167 102.306 60.7822C101.413 60.1477 100.33 59.7802 99.0552 59.6799C97.7807 59.5796 96.6553 59.7732 95.6789 60.2606C94.7025 60.748 93.9188 61.4785 93.3278 62.4522C92.7425 63.4263 92.3996 64.5876 92.2992 65.9361C92.1987 67.2847 92.3658 68.4833 92.8005 69.532C93.2408 70.5811 93.9074 71.4229 94.8002 72.0574C95.2015 72.3427 95.6414 72.5739 96.1199 72.7512L96.7787 72.803L96.7676 72.9522ZM86.1751 71.9685L86.3498 69.6227L86.1969 69.6107C86.0147 69.9155 85.7581 70.223 85.4274 70.5333C85.1023 70.8439 84.682 71.093 84.1667 71.2804C83.657 71.4683 83.0283 71.5328 82.2807 71.4739C81.2781 71.395 80.3865 71.0883 79.6058 70.5539C78.8313 70.0142 78.2383 69.2551 77.8269 68.2766C77.4216 67.2929 77.2719 66.09 77.3778 64.6678C77.4846 63.2342 77.8126 62.0432 78.3619 61.0948C78.9172 60.1411 79.6217 59.4414 80.4753 58.9956C81.3294 58.5442 82.2577 58.358 83.2603 58.4369C84.025 58.497 84.644 58.6768 85.1174 58.9763C85.5969 59.2705 85.9704 59.6105 86.2379 59.9963C86.5058 60.3764 86.7045 60.7312 86.8338 61.0605L87.0037 61.0739L87.1645 58.9151L90.1977 59.1538L89.2253 72.2086L86.1751 71.9685ZM85.0193 68.7828C84.5369 69.064 83.97 69.179 83.3186 69.1277C82.6445 69.0747 82.0875 68.8655 81.6475 68.5003C81.2136 68.1299 80.8999 67.6379 80.7063 67.0242C80.5188 66.4053 80.4548 65.6964 80.5143 64.8975C80.573 64.1099 80.7414 63.4165 81.0197 62.8171C81.2983 62.2121 81.6804 61.7492 82.1658 61.4284C82.6512 61.1075 83.2365 60.974 83.9219 61.028C84.5846 61.0801 85.1297 61.2969 85.5571 61.6782C85.9906 62.0542 86.3005 62.5602 86.4867 63.1961C86.6786 63.8324 86.7439 64.5614 86.6827 65.383C86.6207 66.2159 86.4486 66.9205 86.1663 67.4967C85.8841 68.0729 85.5018 68.5016 85.0193 68.7828ZM100.027 70.2632C99.5347 70.6063 98.9428 70.7506 98.2517 70.6962C97.5437 70.6405 96.9687 70.4043 96.5269 69.9877C96.0911 69.5658 95.7812 69.0228 95.597 68.3586C95.4186 67.6948 95.3589 66.9663 95.418 66.1731C95.4775 65.3741 95.6446 64.6606 95.9193 64.0325C96.2001 63.3992 96.587 62.9081 97.0802 62.5594C97.579 62.2111 98.1825 62.0648 98.8905 62.1205C99.5816 62.1749 100.145 62.4131 100.581 62.8349C101.017 63.2568 101.323 63.8024 101.501 64.4718C101.686 65.136 101.748 65.8676 101.688 66.6665C101.629 67.4598 101.46 68.1703 101.179 68.7979C100.905 69.426 100.521 69.9144 100.027 70.2632ZM113.5 74.119L119.12 61.43L115.849 61.1726L112.118 70.6334L111.982 70.6227L109.706 60.6891L106.426 60.431L110.101 73.8515L113.5 74.119Z" fill="white"/>
<line y1="-1" x2="42.0119" y2="-1" transform="matrix(0.0742825 -0.997237 0.996917 0.0784591 211.781 110.687)" stroke="#B7B7B7" stroke-width="2"/>
<path fill-rule="evenodd" clip-rule="evenodd" d="M605.777 99.8054C606.743 99.3623 607.891 99.7838 608.341 100.747C611.046 106.532 612.217 112.942 611.741 119.331C611.265 125.721 609.158 131.872 605.628 137.167C605.041 138.048 603.844 138.285 602.955 137.696C602.066 137.107 601.822 135.915 602.41 135.034C605.573 130.289 607.465 124.769 607.893 119.028C608.32 113.288 607.267 107.536 604.844 102.352C604.394 101.388 604.812 100.248 605.777 99.8054ZM598.087 103.023C599.053 102.58 600.201 103.001 600.651 103.965C602.791 108.543 603.717 113.615 603.341 118.67C602.964 123.725 601.298 128.593 598.504 132.783C597.917 133.665 596.72 133.902 595.831 133.313C594.942 132.724 594.698 131.532 595.285 130.65C597.712 127.01 599.165 122.773 599.493 118.367C599.821 113.961 599.013 109.547 597.154 105.569C596.703 104.606 597.121 103.466 598.087 103.023ZM590.764 105.953C591.732 105.514 592.878 105.941 593.324 106.906C594.906 110.33 595.588 114.121 595.306 117.899C595.025 121.677 593.789 125.317 591.719 128.454C591.135 129.338 589.939 129.58 589.048 128.995C588.157 128.41 587.907 127.219 588.491 126.335C590.199 123.746 591.225 120.732 591.458 117.596C591.692 114.46 591.125 111.32 589.819 108.495C589.374 107.529 589.797 106.391 590.764 105.953ZM583.303 109.217C584.24 108.717 585.411 109.07 585.918 110.005C587.154 112.286 587.71 114.857 587.519 117.425C587.328 119.993 586.397 122.446 584.837 124.508C584.198 125.352 582.989 125.518 582.136 124.878C581.284 124.237 581.111 123.033 581.751 122.189C582.871 120.708 583.535 118.952 583.671 117.122C583.808 115.292 583.412 113.453 582.523 111.814C582.017 110.879 582.366 109.716 583.303 109.217Z" fill="#B7B7B7"/>
<g filter="url(#filter0_ii_105_48)">
<path d="M69.1382 147.709C69.4708 143.245 73.3791 139.912 77.8676 140.265L146.949 145.702C151.438 146.055 154.807 149.961 154.474 154.425L151.143 199.148C150.811 203.612 146.902 206.945 142.414 206.591L73.3321 201.155C68.8435 200.801 65.4744 196.896 65.8069 192.432L69.1382 147.709Z" fill="#CDC9C1"/>
<path d="M69.1382 147.709C69.4708 143.245 73.3791 139.912 77.8676 140.265L146.949 145.702C151.438 146.055 154.807 149.961 154.474 154.425L151.143 199.148C150.811 203.612 146.902 206.945 142.414 206.591L73.3321 201.155C68.8435 200.801 65.4744 196.896 65.8069 192.432L69.1382 147.709Z" fill="url(#paint1_radial_105_48)" fill-opacity="0.1"/>
<path d="M69.1382 147.709C69.4708 143.245 73.3791 139.912 77.8676 140.265L146.949 145.702C151.438 146.055 154.807 149.961 154.474 154.425L151.143 199.148C150.811 203.612 146.902 206.945 142.414 206.591L73.3321 201.155C68.8435 200.801 65.4744 196.896 65.8069 192.432L69.1382 147.709Z" fill="url(#paint2_radial_105_48)" fill-opacity="0.1"/>
<path d="M69.1382 147.709C69.4708 143.245 73.3791 139.912 77.8676 140.265L146.949 145.702C151.438 146.055 154.807 149.961 154.474 154.425L151.143 199.148C150.811 203.612 146.902 206.945 142.414 206.591L73.3321 201.155C68.8435 200.801 65.4744 196.896 65.8069 192.432L69.1382 147.709Z" fill="url(#paint3_radial_105_48)" fill-opacity="0.1"/>
</g>
<mask id="mask0_105_48" style="mask-type:alpha" maskUnits="userSpaceOnUse" x="65" y="140" width="90" height="67">
<path d="M69.1382 147.709C69.4708 143.245 73.3791 139.912 77.8676 140.265L146.949 145.702C151.438 146.055 154.807 149.961 154.474 154.425L151.143 199.148C150.811 203.612 146.902 206.945 142.414 206.591L73.3321 201.155C68.8435 200.801 65.4744 196.896 65.8069 192.432L69.1382 147.709Z" fill="#D9D9D9"/>
</mask>
<g mask="url(#mask0_105_48)">
<path fill-rule="evenodd" clip-rule="evenodd" d="M68.6696 147.142C68.7735 145.747 69.9949 144.705 71.3976 144.816L91.4507 146.394C92.8533 146.504 93.9062 147.725 93.8023 149.12L92.8664 161.684C92.7624 163.08 91.5411 164.121 90.1384 164.011L70.0853 162.432C68.6826 162.322 67.6298 161.102 67.7337 159.706L68.6696 147.142ZM71.3223 145.826C70.4807 145.76 69.7479 146.385 69.6855 147.222L68.7496 159.786C68.6873 160.624 69.319 161.356 70.1606 161.422L90.2137 163C91.0553 163.066 91.7881 162.442 91.8504 161.605L92.7864 149.04C92.8487 148.203 92.217 147.471 91.3754 147.404L71.3223 145.826Z" fill="#10141E"/>
<path fill-rule="evenodd" clip-rule="evenodd" d="M67.4327 163.748C67.5366 162.353 68.7579 161.311 70.1606 161.422L90.2137 163C91.6164 163.11 92.6692 164.331 92.5653 165.726L91.6294 178.29C91.5255 179.686 90.3042 180.727 88.9015 180.617L68.8484 179.038C67.4457 178.928 66.3929 177.708 66.4968 176.312L67.4327 163.748ZM70.0853 162.432C69.2437 162.366 68.5109 162.991 68.4486 163.828L67.5127 176.392C67.4503 177.229 68.082 177.962 68.9236 178.028L88.9768 179.606C89.8184 179.672 90.5512 179.048 90.6135 178.21L91.5494 165.646C91.6118 164.809 90.9801 164.077 90.1385 164.01L70.0853 162.432Z" fill="#10141E"/>
<path fill-rule="evenodd" clip-rule="evenodd" d="M97.2522 164.239C97.3562 162.844 98.5775 161.802 99.9802 161.913L127.454 164.075C128.856 164.185 129.909 165.406 129.805 166.801L129.763 167.372C129.659 168.767 128.438 169.809 127.035 169.698L125.533 169.58C124.692 169.514 123.959 170.139 123.896 170.976L122.892 184.463C122.788 185.858 121.567 186.899 120.164 186.789L92.6902 184.627C91.2875 184.516 90.2347 183.296 90.3386 181.901L90.4499 180.407C90.5538 179.012 91.7751 177.97 93.1778 178.081L94.6796 178.199C95.5212 178.265 96.254 177.64 96.3163 176.803L97.2522 164.239ZM99.9049 162.923C99.0633 162.857 98.3305 163.482 98.2681 164.319L97.3322 176.883C97.2283 178.278 96.007 179.32 94.6043 179.209L93.1025 179.091C92.2609 179.025 91.5281 179.65 91.4658 180.487L91.3545 181.981C91.2922 182.818 91.9239 183.55 92.7655 183.616L120.239 185.778C121.081 185.845 121.814 185.22 121.876 184.383L122.881 170.896C122.984 169.501 124.206 168.459 125.608 168.57L127.11 168.688C127.952 168.754 128.685 168.129 128.747 167.292L128.79 166.721C128.852 165.884 128.22 165.152 127.379 165.085L99.9049 162.923Z" fill="#10141E"/>
<path fill-rule="evenodd" clip-rule="evenodd" d="M66.1957 180.354C66.2997 178.959 67.521 177.917 68.9237 178.028L88.9768 179.606C90.3795 179.716 91.4323 180.937 91.3284 182.332L90.3925 194.897C90.2886 196.292 89.0672 197.333 87.6645 197.223L67.6114 195.644C66.2088 195.534 65.1559 194.314 65.2598 192.919L66.1957 180.354ZM68.8484 179.038C68.0068 178.972 67.274 179.597 67.2117 180.434L66.2757 192.998C66.2134 193.836 66.8451 194.568 67.6867 194.634L87.7398 196.212C88.5814 196.279 89.3142 195.654 89.3766 194.817L90.3125 182.252C90.3748 181.415 89.7431 180.683 88.9015 180.617L68.8484 179.038Z" fill="#10141E"/>
<path fill-rule="evenodd" clip-rule="evenodd" d="M129.889 151.96C129.993 150.565 131.214 149.523 132.617 149.634L152.67 151.212C154.073 151.322 155.126 152.543 155.022 153.938L154.086 166.502C153.982 167.897 152.76 168.939 151.358 168.829L131.305 167.25C129.902 167.14 128.849 165.919 128.953 164.524L129.889 151.96ZM132.542 150.644C131.7 150.578 130.967 151.203 130.905 152.04L129.969 164.604C129.907 165.441 130.538 166.174 131.38 166.24L151.433 167.818C152.275 167.884 153.007 167.259 153.07 166.422L154.006 153.858C154.068 153.021 153.436 152.289 152.595 152.222L132.542 150.644Z" fill="#10141E"/>
<path fill-rule="evenodd" clip-rule="evenodd" d="M128.652 168.566C128.756 167.171 129.977 166.129 131.38 166.24L151.433 167.818C152.836 167.928 153.889 169.149 153.785 170.544L152.849 183.108C152.745 184.504 151.524 185.545 150.121 185.435L130.068 183.856C128.665 183.746 127.612 182.526 127.716 181.13L128.652 168.566ZM131.305 167.25C130.463 167.184 129.73 167.809 129.668 168.646L128.732 181.21C128.67 182.047 129.301 182.78 130.143 182.846L150.196 184.424C151.038 184.49 151.771 183.866 151.833 183.028L152.769 170.464C152.831 169.627 152.199 168.895 151.358 168.828L131.305 167.25Z" fill="#10141E"/>
<path fill-rule="evenodd" clip-rule="evenodd" d="M127.415 185.172C127.519 183.777 128.74 182.736 130.143 182.846L150.196 184.424C151.599 184.535 152.652 185.755 152.548 187.15L151.612 199.715C151.508 201.11 150.287 202.151 148.884 202.041L128.831 200.463C127.428 200.352 126.375 199.132 126.479 197.737L127.415 185.172ZM130.068 183.856C129.226 183.79 128.493 184.415 128.431 185.252L127.495 197.817C127.433 198.654 128.064 199.386 128.906 199.452L148.959 201.03C149.801 201.097 150.534 200.472 150.596 199.635L151.532 187.07C151.594 186.233 150.962 185.501 150.121 185.435L130.068 183.856Z" fill="#10141E"/>
</g>
<path d="M383.992 355.673L385.57 361.739L385.651 361.745L388.109 355.997L389.291 356.09L386.142 363.138L384.878 363.038L382.809 355.58L383.992 355.673ZM389.671 363.415L388.51 363.324L391.659 356.277L392.923 356.376L394.992 363.834L393.831 363.743L392.223 357.646L392.166 357.642L389.671 363.415ZM390.077 360.59L393.844 360.887L393.775 361.808L390.008 361.511L390.077 360.59ZM396.039 363.916L396.579 356.664L397.673 356.75L397.203 363.06L400.488 363.319L400.418 364.261L396.039 363.916ZM403.3 357.193L402.76 364.445L401.666 364.359L402.206 357.107L403.3 357.193ZM406.7 364.755L404.353 364.571L404.893 357.318L407.315 357.509C408.025 357.565 408.624 357.758 409.112 358.088C409.601 358.416 409.96 358.862 410.192 359.424C410.425 359.983 410.514 360.64 410.458 361.393C410.402 362.148 410.215 362.787 409.899 363.308C409.584 363.83 409.157 364.216 408.616 364.468C408.075 364.718 407.436 364.813 406.7 364.755ZM405.518 363.701L406.711 363.795C407.263 363.838 407.73 363.77 408.111 363.591C408.493 363.41 408.789 363.128 409 362.746C409.212 362.361 409.339 361.882 409.382 361.308C409.424 360.739 409.369 360.249 409.217 359.838C409.067 359.428 408.822 359.106 408.481 358.872C408.14 358.639 407.705 358.501 407.176 358.46L405.916 358.36L405.518 363.701ZM382.039 368.504L382.109 367.562L387.72 368.004L387.65 368.946L385.388 368.768L384.918 375.078L383.828 374.992L384.298 368.682L382.039 368.504ZM388.42 375.354L388.96 368.101L390.054 368.187L389.819 371.339L393.434 371.623L393.669 368.472L394.766 368.558L394.226 375.811L393.129 375.724L393.364 372.562L389.75 372.277L389.514 375.44L388.42 375.354ZM395.819 375.936L396.359 368.683L398.944 368.887C399.505 368.931 399.964 369.065 400.32 369.287C400.679 369.51 400.937 369.8 401.096 370.157C401.255 370.511 401.318 370.912 401.284 371.358C401.251 371.802 401.129 372.185 400.917 372.508C400.708 372.829 400.41 373.068 400.024 373.225C399.639 373.382 399.166 373.439 398.604 373.395L396.647 373.241L396.717 372.299L398.575 372.445C398.929 372.473 399.221 372.445 399.451 372.361C399.682 372.277 399.857 372.142 399.976 371.957C400.094 371.771 400.163 371.543 400.183 371.271C400.204 370.997 400.168 370.756 400.077 370.547C399.988 370.338 399.836 370.172 399.619 370.048C399.405 369.922 399.118 369.845 398.757 369.816L397.383 369.708L396.913 376.022L395.819 375.936ZM399.642 372.946L401.19 376.359L399.943 376.261L398.431 372.85L399.642 372.946ZM407.447 369.556L408.545 369.642L408.189 374.413C408.152 374.92 407.999 375.361 407.731 375.734C407.464 376.105 407.106 376.385 406.657 376.575C406.209 376.763 405.694 376.834 405.114 376.789C404.535 376.743 404.039 376.592 403.623 376.337C403.208 376.078 402.896 375.745 402.686 375.337C402.477 374.926 402.392 374.467 402.429 373.959L402.785 369.189L403.879 369.275L403.53 373.957C403.506 374.285 403.556 374.582 403.681 374.849C403.808 375.115 404 375.332 404.255 375.499C404.511 375.664 404.822 375.761 405.188 375.79C405.556 375.819 405.879 375.772 406.157 375.649C406.436 375.524 406.657 375.339 406.817 375.095C406.98 374.852 407.074 374.566 407.098 374.238L407.447 369.556Z" fill="#B7B7B7"/>
<path fill-rule="evenodd" clip-rule="evenodd" d="M578.134 401.674C599.574 403.361 618.224 387.684 619.79 366.658C621.356 345.631 605.245 327.218 583.805 325.531C574.196 324.774 565.148 327.506 557.947 332.644C551.59 326.439 543.052 322.324 533.443 321.567C512.003 319.88 493.353 335.557 491.786 356.584C490.22 377.61 506.331 396.023 527.771 397.711C537.38 398.467 546.429 395.735 553.63 390.597C559.987 396.802 568.525 400.918 578.134 401.674Z" fill="#ED0006"/>
<path fill-rule="evenodd" clip-rule="evenodd" d="M553.63 390.597C562.497 384.271 568.563 374.297 569.428 362.694C570.292 351.091 565.773 340.284 557.947 332.644C565.148 327.506 574.197 324.774 583.806 325.531C605.246 327.218 621.357 345.631 619.791 366.658C618.225 387.684 599.574 403.361 578.134 401.674C568.525 400.918 559.987 396.802 553.63 390.597Z" fill="#F9A000"/>
<path fill-rule="evenodd" clip-rule="evenodd" d="M553.631 390.596C562.497 384.269 568.564 374.295 569.428 362.693C570.292 351.09 565.774 340.283 557.947 332.643C549.081 338.969 543.014 348.943 542.15 360.546C541.286 372.149 545.804 382.956 553.631 390.596Z" fill="#FF5E00"/>
<path d="M66.5079 337.027L68.9005 337.215L69.1158 337.232L69.0998 337.447C68.997 337.536 68.9334 337.635 68.9091 337.745C68.8849 337.856 68.8626 338.047 68.8424 338.318L67.96 350.165L74.8985 350.711L74.7523 352.674L65.3972 351.938L66.5079 337.027ZM83.7963 353.386L84.9088 338.451L94.4074 339.199L94.2612 341.161L87.0356 340.592L86.7218 344.805L92.6794 345.274L92.5314 347.26L86.5738 346.791L86.2155 351.602L93.3933 352.167L93.2471 354.129L83.7963 353.386ZM126.293 356.995C125.48 356.931 124.725 356.719 124.03 356.359C123.351 356.001 122.763 355.489 122.267 354.824C121.771 354.159 121.4 353.336 121.152 352.353C120.92 351.372 120.854 350.219 120.952 348.895C121.039 347.73 121.226 346.726 121.514 345.882C121.818 345.023 122.192 344.314 122.635 343.755C123.079 343.18 123.569 342.737 124.105 342.427C124.643 342.1 125.197 341.878 125.767 341.763C126.339 341.631 126.903 341.587 127.462 341.631C128.578 341.719 129.508 342.057 130.25 342.645C131.01 343.219 131.555 343.976 131.886 344.917L130.203 345.867L130.002 345.972L129.895 345.795C129.937 345.67 129.937 345.55 129.898 345.434C129.876 345.304 129.8 345.13 129.672 344.911C129.356 344.421 129.004 344.08 128.617 343.889C128.23 343.698 127.83 343.586 127.415 343.554C126.904 343.513 126.408 343.603 125.927 343.822C125.462 344.026 125.045 344.354 124.674 344.806C124.304 345.259 123.996 345.836 123.751 346.539C123.507 347.226 123.351 348.033 123.282 348.958C123.215 349.852 123.243 350.664 123.365 351.396C123.504 352.113 123.714 352.74 123.995 353.275C124.293 353.796 124.648 354.209 125.058 354.514C125.486 354.805 125.955 354.97 126.465 355.01C126.864 355.042 127.235 355.015 127.578 354.929C127.922 354.844 128.246 354.685 128.552 354.452C128.86 354.204 129.139 353.905 129.389 353.555L130.977 354.86C130.385 355.696 129.707 356.285 128.944 356.626C128.182 356.951 127.298 357.074 126.293 356.995ZM147.099 354.564L141.429 354.118L141.914 352.447L146.819 352.833L147.099 354.564ZM144.893 347.674L140.788 357.871L138.467 357.688L144.782 343.019L145.716 343.092L149.784 358.579L147.392 358.391L144.893 347.674ZM157.823 359.212L158.934 344.301L163.576 344.666C164.772 344.76 165.731 345.02 166.454 345.446C167.193 345.858 167.714 346.404 168.016 347.086C168.336 347.753 168.463 348.526 168.397 349.403C168.356 349.962 168.194 350.511 167.913 351.05C167.65 351.575 167.279 352.035 166.8 352.431C166.338 352.812 165.805 353.075 165.201 353.22L168.016 360.014L165.504 359.816L162.84 353.251L160.711 353.083L160.24 359.402L157.823 359.212ZM160.859 351.097L163.251 351.285C164.113 351.353 164.765 351.204 165.21 350.837C165.671 350.456 165.927 349.931 165.977 349.261C166.008 348.846 165.941 348.455 165.776 348.089C165.626 347.725 165.368 347.423 165.001 347.186C164.649 346.949 164.178 346.808 163.588 346.762L161.196 346.573L160.859 351.097ZM176.316 360.691L177.429 345.757L181.137 346.048C182.015 346.117 182.743 346.255 183.321 346.461C183.915 346.668 184.408 346.94 184.8 347.276C185.208 347.613 185.555 348.017 185.841 348.489C186.143 348.962 186.384 349.487 186.566 350.063C186.764 350.64 186.894 351.268 186.955 351.947C187.018 352.61 187.021 353.324 186.964 354.09C186.863 355.238 186.642 356.256 186.303 357.144C185.981 358.033 185.524 358.776 184.934 359.371C184.36 359.968 183.646 360.409 182.79 360.695C181.936 360.965 180.918 361.053 179.738 360.96L176.316 360.691ZM178.728 359.003L179.829 359.09C180.898 359.174 181.767 359.026 182.437 358.645C183.125 358.25 183.642 357.657 183.99 356.865C184.355 356.06 184.579 355.098 184.662 353.981C184.75 352.801 184.69 351.777 184.482 350.91C184.273 350.043 183.883 349.354 183.312 348.844C182.757 348.318 181.954 348.014 180.901 347.932L179.561 347.826L178.728 359.003ZM195.876 347.208L198.268 347.397L198.484 347.414L198.468 347.629C198.365 347.717 198.301 347.816 198.277 347.927C198.253 348.037 198.231 348.228 198.21 348.499L197.834 353.549L202.835 353.943L203.293 347.792L205.662 347.978L205.901 347.997L205.885 348.213C205.782 348.301 205.71 348.4 205.67 348.509C205.646 348.619 205.624 348.81 205.604 349.081L204.575 362.891L202.158 362.701L202.668 355.856L197.692 355.464L197.182 362.309L194.765 362.119L195.876 347.208ZM218.289 364.235C217.108 364.142 216.126 363.768 215.34 363.112C214.571 362.458 214.021 361.54 213.692 360.359C213.363 359.177 213.26 357.765 213.382 356.121C213.502 354.51 213.812 353.154 214.311 352.054C214.811 350.937 215.49 350.108 216.349 349.566C217.224 349.025 218.251 348.801 219.432 348.894C220.628 348.988 221.61 349.37 222.378 350.04C223.147 350.711 223.696 351.637 224.025 352.818C224.371 353.985 224.484 355.374 224.364 356.986C224.242 358.629 223.922 360.008 223.406 361.123C222.906 362.239 222.227 363.061 221.369 363.587C220.512 364.113 219.485 364.329 218.289 364.235ZM218.433 362.297C219.087 362.348 219.662 362.177 220.156 361.782C220.651 361.388 221.057 360.778 221.375 359.952C221.695 359.111 221.902 358.052 221.997 356.775C222.086 355.579 222.035 354.547 221.843 353.682C221.65 352.816 221.34 352.141 220.91 351.658C220.482 351.159 219.941 350.884 219.287 350.832C218.633 350.781 218.05 350.968 217.537 351.393C217.041 351.803 216.642 352.422 216.34 353.248C216.037 354.075 215.842 355.087 215.752 356.284C215.657 357.56 215.697 358.639 215.872 359.519C216.049 360.384 216.352 361.049 216.783 361.517C217.229 361.985 217.779 362.245 218.433 362.297ZM233.392 350.161L235.784 350.349L236 350.366L235.984 350.582C235.881 350.67 235.817 350.769 235.793 350.88C235.769 350.99 235.747 351.181 235.726 351.452L234.844 363.299L241.782 363.845L241.636 365.808L232.281 365.072L233.392 350.161ZM250.487 366.528L251.6 351.594L255.308 351.886C256.185 351.955 256.913 352.092 257.491 352.298C258.086 352.506 258.579 352.777 258.971 353.113C259.379 353.45 259.726 353.854 260.012 354.326C260.313 354.799 260.555 355.324 260.737 355.9C260.935 356.477 261.064 357.105 261.126 357.784C261.189 358.447 261.192 359.162 261.135 359.928C261.033 361.075 260.813 362.093 260.474 362.981C260.151 363.871 259.695 364.613 259.105 365.209C258.531 365.805 257.816 366.247 256.961 366.532C256.106 366.802 255.089 366.891 253.909 366.798L250.487 366.528ZM252.899 364.841L254 364.927C255.068 365.011 255.938 364.863 256.608 364.482C257.295 364.087 257.813 363.494 258.16 362.703C258.525 361.897 258.749 360.936 258.833 359.819C258.92 358.638 258.86 357.614 258.652 356.747C258.444 355.88 258.054 355.191 257.482 354.681C256.928 354.156 256.124 353.852 255.072 353.769L253.732 353.664L252.899 364.841ZM269.223 367.979L270.335 353.044L279.834 353.792L279.688 355.754L272.462 355.186L272.148 359.398L278.106 359.867L277.958 361.853L272 361.385L271.642 366.195L278.82 366.76L278.674 368.723L269.223 367.979ZM287.622 369.427L288.733 354.516L293.374 354.882C294.571 354.976 295.53 355.236 296.252 355.662C296.992 356.073 297.513 356.62 297.815 357.301C298.134 357.969 298.261 358.741 298.196 359.618C298.154 360.177 297.993 360.726 297.712 361.266C297.448 361.791 297.077 362.251 296.598 362.646C296.137 363.027 295.604 363.29 294.999 363.435L297.815 370.229L295.302 370.031L292.639 363.466L290.509 363.299L290.039 369.617L287.622 369.427ZM290.657 361.312L293.05 361.501C293.911 361.568 294.564 361.419 295.008 361.053C295.47 360.672 295.726 360.146 295.776 359.476C295.807 359.061 295.739 358.671 295.574 358.305C295.425 357.94 295.167 357.639 294.799 357.401C294.448 357.165 293.977 357.023 293.387 356.977L290.994 356.789L290.657 361.312Z" fill="#B7B7B7"/>
<defs>
<filter id="filter0_ii_105_48" x="65.7843" y="140.24" width="88.7126" height="66.3776" filterUnits="userSpaceOnUse" color-interpolation-filters="sRGB">
<feFlood flood-opacity="0" result="BackgroundImageFix"/>
<feBlend mode="normal" in="SourceGraphic" in2="BackgroundImageFix" result="shape"/>
<feColorMatrix in="SourceAlpha" type="matrix" values="0 0 0 0 0 0 0 0 0 0 0 0 0 0 0 0 0 0 127 0" result="hardAlpha"/>
<feOffset dx="-1" dy="-1"/>
<feComposite in2="hardAlpha" operator="arithmetic" k2="-1" k3="1"/>
<feColorMatrix type="matrix" values="0 0 0 0 0.184314 0 0 0 0 0.152941 0 0 0 0 0.0941176 0 0 0 0.2 0"/>
<feBlend mode="normal" in2="shape" result="effect1_innerShadow_105_48"/>
<feColorMatrix in="SourceAlpha" type="matrix" values="0 0 0 0 0 0 0 0 0 0 0 0 0 0 0 0 0 0 127 0" result="hardAlpha"/>
<feOffset dx="1" dy="1"/>
<feComposite in2="hardAlpha" operator="arithmetic" k2="-1" k3="1"/>
<feColorMatrix type="matrix" values="0 0 0 0 0.184314 0 0 0 0 0.152941 0 0 0 0 0.0941176 0 0 0 0.2 0"/>
<feBlend mode="normal" in2="effect1_innerShadow_105_48" result="effect2_innerShadow_105_48"/>
</filter>
<linearGradient id="paint0_linear_105_48" x1="-9.56654e-06" y1="383" x2="642" y2="1.71239e-05" gradientUnits="userSpaceOnUse">
<stop stop-color="#130D21"/>
<stop offset="1" stop-color="#313131"/>
</linearGradient>
<radialGradient id="paint1_radial_105_48" cx="0" cy="0" r="1" gradientUnits="userSpaceOnUse" gradientTransform="translate(91.0744 141.305) rotate(74.9715) scale(64.7841 90.4733)">
<stop stop-color="#C29632"/>
<stop offset="1" stop-color="#C29632" stop-opacity="0"/>
</radialGradient>
<radialGradient id="paint2_radial_105_48" cx="0" cy="0" r="1" gradientUnits="userSpaceOnUse" gradientTransform="translate(152.74 177.709) rotate(149.752) scale(51.9386 72.5378)">
<stop stop-color="#664700"/>
<stop offset="1" stop-color="#664700"/>
</radialGradient>
<radialGradient id="paint3_radial_105_48" cx="0" cy="0" r="1" gradientUnits="userSpaceOnUse" gradientTransform="translate(76.3356 201.391) rotate(-17.2211) scale(79.9904 111.359)">
<stop stop-color="#402200"/>
<stop offset="1" stop-color="#402200" stop-opacity="0"/>
</radialGradient>
</defs>
</svg>
