<svg width="122" height="52" viewBox="0 0 122 52" fill="none" xmlns="http://www.w3.org/2000/svg">
<path d="M22.875 43V13.9091H35.4886C37.7045 13.9091 39.5653 14.2074 41.071 14.804C42.5862 15.4006 43.7273 16.2434 44.4943 17.3324C45.2708 18.4214 45.6591 19.7045 45.6591 21.1818C45.6591 22.2519 45.4223 23.2273 44.9489 24.108C44.4848 24.9886 43.8314 25.7273 42.9886 26.3239C42.1458 26.911 41.161 27.3182 40.0341 27.5455V27.8295C41.2841 27.8769 42.4205 28.1941 43.4432 28.7812C44.4659 29.3589 45.2803 30.1591 45.8864 31.1818C46.4924 32.1951 46.7955 33.3883 46.7955 34.7614C46.7955 36.3523 46.3788 37.768 45.5455 39.0085C44.7216 40.2491 43.5473 41.2244 42.0227 41.9347C40.4981 42.6449 38.6799 43 36.5682 43H22.875ZM30.7727 36.6932H34.4659C35.7917 36.6932 36.786 36.447 37.4489 35.9545C38.1117 35.4527 38.4432 34.714 38.4432 33.7386C38.4432 33.0568 38.2869 32.4792 37.9744 32.0057C37.6619 31.5322 37.2169 31.1723 36.6392 30.9261C36.071 30.6799 35.3845 30.5568 34.5795 30.5568H30.7727V36.6932ZM30.7727 25.6705H34.0114C34.7027 25.6705 35.3134 25.5616 35.8438 25.3438C36.3741 25.1259 36.786 24.8134 37.0795 24.4062C37.3826 23.9896 37.5341 23.483 37.5341 22.8864C37.5341 21.9867 37.2121 21.3002 36.5682 20.8267C35.9242 20.3438 35.1098 20.1023 34.125 20.1023H30.7727V25.6705ZM55.7869 43.3409C54.3949 43.3409 53.1638 43.1136 52.0938 42.6591C51.0331 42.1951 50.1998 41.4943 49.5938 40.5568C48.9877 39.6193 48.6847 38.4261 48.6847 36.9773C48.6847 35.7841 48.8883 34.7661 49.2955 33.9233C49.7027 33.071 50.2708 32.375 51 31.8352C51.7292 31.2955 52.5767 30.8835 53.5426 30.5994C54.518 30.3153 55.5691 30.1307 56.696 30.0455C57.9176 29.9508 58.8977 29.8371 59.6364 29.7045C60.3845 29.5625 60.9242 29.3684 61.2557 29.1222C61.5871 28.8665 61.7528 28.5303 61.7528 28.1136V28.0568C61.7528 27.4886 61.535 27.053 61.0994 26.75C60.6638 26.447 60.1051 26.2955 59.4233 26.2955C58.6752 26.2955 58.0644 26.4612 57.5909 26.7926C57.1269 27.1146 56.8475 27.6117 56.7528 28.2841H49.5369C49.6316 26.9583 50.053 25.7367 50.8011 24.6193C51.5587 23.4924 52.6619 22.5928 54.1108 21.9205C55.5597 21.2386 57.3684 20.8977 59.5369 20.8977C61.0994 20.8977 62.5009 21.0824 63.7415 21.4517C64.982 21.8116 66.0379 22.3182 66.9091 22.9716C67.7803 23.6155 68.4432 24.3731 68.8977 25.2443C69.3617 26.1061 69.5938 27.0436 69.5938 28.0568V43H62.2642V39.9318H62.0938C61.6581 40.7462 61.1278 41.4044 60.5028 41.9062C59.8873 42.4081 59.1818 42.7727 58.3864 43C57.6004 43.2273 56.7339 43.3409 55.7869 43.3409ZM58.3438 38.3977C58.9403 38.3977 59.4991 38.2746 60.0199 38.0284C60.5502 37.7822 60.9811 37.4271 61.3125 36.9631C61.6439 36.4991 61.8097 35.9356 61.8097 35.2727V33.4545C61.6013 33.5398 61.3788 33.6203 61.142 33.696C60.9148 33.7718 60.6686 33.8428 60.4034 33.9091C60.1477 33.9754 59.8731 34.0369 59.5795 34.0938C59.2955 34.1506 58.9972 34.2027 58.6847 34.25C58.0786 34.3447 57.5814 34.5009 57.1932 34.7188C56.8144 34.9271 56.5303 35.1875 56.3409 35.5C56.161 35.803 56.071 36.1439 56.071 36.5227C56.071 37.1288 56.2841 37.5928 56.7102 37.9148C57.1364 38.2367 57.6809 38.3977 58.3438 38.3977ZM81.1811 30.7273V43H73.3402V21.1818H80.7834V25.3295H81.0107C81.4841 23.947 82.3175 22.8627 83.5107 22.0767C84.7133 21.2907 86.1148 20.8977 87.7152 20.8977C89.2588 20.8977 90.5987 21.2528 91.7351 21.9631C92.8809 22.6638 93.7663 23.6297 94.3913 24.8608C95.0258 26.0919 95.3383 27.4981 95.3288 29.0795V43H87.4879V30.7273C87.4974 29.6477 87.2228 28.8002 86.6641 28.1847C86.1148 27.5691 85.3478 27.2614 84.3629 27.2614C83.719 27.2614 83.1555 27.4034 82.6726 27.6875C82.1991 27.9621 81.8345 28.3598 81.5788 28.8807C81.3232 29.392 81.1906 30.0076 81.1811 30.7273ZM106.245 37.8295L106.302 28.5114H107.325L112.609 21.1818H121.415L112.552 32.6023H110.336L106.245 37.8295ZM99.1996 43V13.9091H107.04V43H99.1996ZM112.665 43L107.665 34.3636L112.779 28.7955L121.643 43H112.665Z" fill="black"/>
<path fill-rule="evenodd" clip-rule="evenodd" d="M4.42334 18.7301C5.21875 19.0312 6.17041 19.1818 7.27844 19.1818C8.45459 19.1818 9.50574 19 10.4318 18.6364C11.3579 18.2727 12.088 17.7244 12.6222 16.9915C13.1562 16.2585 13.4233 15.3324 13.4233 14.2131V14H20.3392C20.553 14.0607 20.7732 14.1106 21 14.1496V43H0V14H10.3636V14.1278C10.3636 15.0938 10.0767 15.7869 9.50281 16.2074C8.92896 16.6335 8.20459 16.8466 7.32959 16.8466C6.71021 16.8466 6.19604 16.7614 5.78699 16.5909C5.38354 16.4261 5.0625 16.2159 4.82385 15.9602C4.58521 15.7102 4.40344 15.4574 4.27844 15.2017L1.5 15.875C1.6875 16.4829 2.02271 17.0369 2.50574 17.5369C2.98865 18.0369 3.62781 18.4347 4.42334 18.7301ZM21 14.1496C21.4104 14.2203 21.8422 14.2557 22.2954 14.2557C23.5739 14.2557 24.6818 13.9744 25.6193 13.4119C26.5568 12.8494 27.2812 12.0625 27.7926 11.0511C28.3097 10.0398 28.5682 8.85794 28.5682 7.50568C28.5682 6.15341 28.3097 4.96875 27.7926 3.95169C27.2812 2.93466 26.5568 2.1449 25.6193 1.5824C24.6818 1.0199 23.5739 0.738647 22.2954 0.738647C21.0171 0.738647 19.9091 1.0199 18.9716 1.5824C18.0341 2.1449 17.3068 2.93466 16.7898 3.95169C16.2784 4.96875 16.0227 6.15341 16.0227 7.50568C16.0227 8.85794 16.2784 10.0398 16.7898 11.0511C17.3068 12.0625 18.0341 12.8494 18.9716 13.4119C19.3929 13.6648 19.8489 13.8608 20.3392 14H21V14.1496ZM10.3636 14V11.6477H10.2102C10.0511 11.9659 9.81824 12.2926 9.51135 12.6278C9.21021 12.9631 8.80969 13.2443 8.30969 13.4716C7.81531 13.6989 7.19324 13.8125 6.44324 13.8125C5.4375 13.8125 4.52551 13.5767 3.7074 13.1051C2.8949 12.6278 2.24719 11.9176 1.76416 10.9744C1.28699 10.0256 1.04834 8.83807 1.04834 7.41193C1.04834 5.97443 1.28699 4.76135 1.76416 3.77274C2.24719 2.77841 2.89771 2.02557 3.71594 1.51419C4.53406 0.997162 5.44604 0.738647 6.45166 0.738647C7.21875 0.738647 7.84949 0.869324 8.34375 1.13068C8.84375 1.38635 9.24146 1.69601 9.53699 2.05966C9.8324 2.4176 10.0568 2.75568 10.2102 3.07385H10.3807V0.909088H13.4233V14H10.3636ZM8.97449 10.9148C8.51416 11.2329 7.9574 11.3921 7.30396 11.3921C6.62781 11.3921 6.05676 11.2273 5.59094 10.8977C5.13074 10.5625 4.78125 10.0966 4.5426 9.5C4.30969 8.89774 4.19324 8.19601 4.19324 7.3949C4.19324 6.6051 4.30969 5.90057 4.5426 5.28125C4.77551 4.65625 5.12219 4.16476 5.5824 3.80682C6.0426 3.44885 6.61646 3.2699 7.30396 3.2699C7.96875 3.2699 8.52844 3.44318 8.98291 3.78976C9.44324 4.13068 9.78979 4.61081 10.0227 5.2301C10.2614 5.84943 10.3807 6.57101 10.3807 7.3949C10.3807 8.2301 10.2614 8.94601 10.0227 9.5426C9.78406 10.1392 9.43469 10.5966 8.97449 10.9148ZM24.0511 11.2131C23.5852 11.5938 23.0057 11.7841 22.3125 11.7841C21.6023 11.7841 21.0114 11.5938 20.5398 11.2131C20.0739 10.8267 19.7245 10.3097 19.4915 9.66193C19.2642 9.01419 19.1505 8.2926 19.1505 7.49716C19.1505 6.69601 19.2642 5.97159 19.4915 5.32385C19.7245 4.67044 20.0739 4.15057 20.5398 3.76419C21.0114 3.37784 21.6023 3.18466 22.3125 3.18466C23.0057 3.18466 23.5852 3.37784 24.0511 3.76419C24.5171 4.15057 24.8636 4.67044 25.0909 5.32385C25.3239 5.97159 25.4403 6.69601 25.4403 7.49716C25.4403 8.2926 25.3239 9.01419 25.0909 9.66193C24.8636 10.3097 24.5171 10.8267 24.0511 11.2131ZM37.7727 14L42.4347 0.909088H39.1534L36.1364 10.6335H36L32.9915 0.909088H29.7017L34.3636 14H37.7727Z" fill="black"/>
</svg>
